<svg xmlns="http://www.w3.org/2000/svg" x="274.3003" y="272.6626" width="230" height="40" viewBox="-4.0039 -29.2708 197.0118 30.063200000000002" preserveAspectRatio="none"><g transform="matrix(1 0 0 1 0 0)" class="aD6z1nYkhcolor71ec7111-91af-4e5d-9bfa-0609d92a67fc" fill="#270949"><path d="M21.17-21.76L21.17-21.76Q21.09-21.37 21.05-21.00Q21.02-20.63 21.02-20.23L21.02-20.23Q20.82-19.77 20.74-19.57Q20.66-19.38 20.35-19.38L20.35-19.38Q20.27-19.30 20.16-19.28Q20.04-19.26 19.92-19.22L19.92-19.22Q19.77-19.30 19.65-19.34Q19.53-19.38 19.34-19.34L19.34-19.34Q19.26-19.45 19.14-19.47Q19.02-19.49 18.95-19.57L18.95-19.57Q18.95-19.77 18.85-19.90Q18.75-20.04 18.63-20.23L18.63-20.23Q18.63-20.35 18.61-20.53Q18.59-20.70 18.67-20.78L18.67-20.78Q18.63-21.02 18.67-21.07Q18.71-21.13 18.71-21.21L18.71-21.21Q18.75-21.29 18.71-21.41Q18.67-21.52 18.67-21.60L18.67-21.60Q18.79-21.99 18.75-22.11Q18.71-22.23 18.71-22.30L18.71-22.30Q18.75-22.62 18.73-23.05Q18.71-23.48 18.55-23.75L18.55-23.75Q18.59-24.26 18.44-24.61Q18.28-24.96 17.62-24.69L17.62-24.69Q17.30-24.84 16.88-24.71Q16.45-24.57 16.41-24.57L16.41-24.57Q15.98-24.65 15.94-24.57L15.94-24.57Q15.94-24.61 15.76-24.63Q15.59-24.65 15.55-24.69L15.55-24.69Q15.35-24.77 15.16-24.82Q14.96-24.88 14.77-24.73L14.77-24.73Q14.22-24.65 14.00-24.73Q13.79-24.80 13.59-24.61L13.59-24.61Q13.20-24.80 12.70-24.69L12.70-24.69Q12.54-24.80 12.27-24.75Q11.99-24.69 11.91-24.80L11.91-24.80Q11.37-24.84 10.88-24.80Q10.39-24.77 10.04-24.77L10.04-24.77Q9.84-24.57 9.86-24.14Q9.88-23.71 10.04-23.52L10.04-23.52Q9.96-23.32 10.04-22.91Q10.12-22.50 10.04-22.46L10.04-22.46Q10.12-22.15 10.10-22.15Q10.08-22.15 10.08-22.07L10.08-22.07Q10.08-21.99 10.06-21.76Q10.04-21.52 10.04-21.25Q10.04-20.98 10.04-20.74Q10.04-20.51 10.04-20.47L10.04-20.47Q9.88-19.69 9.86-19.22Q9.84-18.75 9.84-18.28L9.84-18.28Q9.84-17.85 9.86-17.75Q9.88-17.66 9.88-17.58L9.88-17.58Q9.77-17.27 9.80-17.11Q9.84-16.95 9.77-16.88L9.77-16.88Q9.77-16.80 9.82-16.60Q9.88-16.41 9.77-16.33L9.77-16.33Q9.84-16.17 9.86-15.98Q9.88-15.78 10-15.63L10-15.63Q10-15.23 9.92-15.18Q9.84-15.12 9.84-15.04L9.84-15.04Q9.84-15 9.86-14.53Q9.88-14.06 9.88-14.02L9.88-14.02Q9.88-13.87 9.79-13.73Q9.69-13.59 9.69-13.44L9.69-13.44Q9.69-13.13 9.77-12.97Q9.84-12.81 9.65-12.50L9.65-12.50Q9.69-12.19 9.65-12.17Q9.61-12.15 9.61-12.07L9.61-12.07Q9.69-11.60 9.67-11.48Q9.65-11.37 9.65-11.21L9.65-11.21Q9.69-10.94 9.79-10.68Q9.88-10.43 9.92-10.20L9.92-10.20Q9.69-9.88 9.73-9.82Q9.77-9.77 9.77-9.69L9.77-9.69Q9.57-9.61 9.63-9.45Q9.69-9.30 9.57-9.22L9.57-9.22Q9.73-9.02 9.57-8.71L9.57-8.71Q9.57-8.52 9.80-8.28L9.80-8.28Q9.73-8.20 9.71-8.07Q9.69-7.93 9.61-7.85L9.61-7.85Q9.65-7.54 9.67-6.95Q9.69-6.37 9.77-6.05L9.77-6.05Q9.80-5.90 9.86-5.63Q9.92-5.35 9.92-5.27L9.92-5.27Q10-4.73 9.96-4.57Q9.92-4.41 10.04-4.06L10.04-4.06Q10.08-3.95 10.16-3.81Q10.23-3.67 10.16-3.52L10.16-3.52Q10.47-3.13 10.37-3.03Q10.27-2.93 10.35-2.81L10.35-2.81Q10.66-2.73 10.98-2.83Q11.29-2.93 11.56-2.77L11.56-2.77Q11.88-2.81 12.03-2.85Q12.19-2.89 12.15-2.73L12.15-2.73Q12.62-2.66 12.81-2.48Q13.01-2.30 13.13-2.30L13.13-2.30Q13.20-2.11 13.30-1.95Q13.40-1.80 13.44-1.60L13.44-1.60Q13.32-1.37 13.34-1.31Q13.36-1.25 13.32-1.21L13.32-1.21Q13.24-1.09 13.16-1.04Q13.09-0.98 13.05-0.86L13.05-0.86Q12.89-0.82 12.77-0.78Q12.66-0.74 12.62-0.55L12.62-0.55Q12.46-0.66 12.38-0.63Q12.30-0.59 12.15-0.51L12.15-0.51Q11.80-0.63 11.62-0.61Q11.45-0.59 11.37-0.66L11.37-0.66Q10.90-0.55 10.47-0.64Q10.04-0.74 9.88-0.70L9.88-0.70Q9.38-0.51 9.20-0.61Q9.02-0.70 8.83-0.70L8.83-0.70Q8.32-0.47 8.14-0.47Q7.97-0.47 7.77-0.43L7.77-0.43Q7.42-0.31 7.36-0.25Q7.30-0.20 6.88-0.23L6.88-0.23Q6.84-0.16 6.46-0.14Q6.09-0.12 6.05-0.16L6.05-0.16Q5.90-0.16 5.72-0.31Q5.55-0.47 5.51-0.59L5.51-0.59Q5.12-0.66 5.02-0.96Q4.92-1.25 4.84-1.56L4.84-1.56Q4.96-1.68 5.10-1.86Q5.23-2.03 5.39-2.07L5.39-2.07Q5.82-2.19 6.09-2.15Q6.37-2.11 6.56-2.30L6.56-2.30Q6.88-2.34 7.15-2.38Q7.42-2.42 7.70-2.54L7.70-2.54Q7.77-3.16 7.54-3.67L7.54-3.67Q7.50-3.75 7.56-3.87Q7.62-3.98 7.58-4.06L7.58-4.06Q7.50-4.26 7.38-4.53Q7.27-4.80 7.50-5L7.50-5Q7.42-5.43 7.42-5.66Q7.42-5.90 7.27-6.05L7.27-6.05Q7.30-6.17 7.27-6.29Q7.23-6.41 7.27-6.52L7.27-6.52Q7.30-6.80 7.34-6.97Q7.38-7.15 7.30-7.46L7.30-7.46Q7.19-7.77 7.25-7.95Q7.30-8.13 7.11-8.36L7.11-8.36Q7.15-8.55 7.19-8.69Q7.23-8.83 7.19-8.98L7.19-8.98Q7.15-9.26 7.25-9.45Q7.34-9.65 7.27-9.61L7.27-9.61Q7.30-9.80 7.27-9.94Q7.23-10.08 7.27-10.23L7.27-10.23Q7.27-10.39 7.30-10.53Q7.34-10.66 7.34-10.82L7.34-10.82Q7.38-10.94 7.32-11.04Q7.27-11.13 7.27-11.21L7.27-11.21Q7.23-11.48 7.29-11.80Q7.34-12.11 7.15-12.30L7.15-12.30Q7.30-12.58 7.32-12.93Q7.34-13.28 7.42-13.59L7.42-13.59Q7.30-13.87 7.36-13.93Q7.42-13.98 7.34-14.06L7.34-14.06Q7.46-14.38 7.54-14.45L7.54-14.45Q7.50-14.84 7.54-14.88Q7.58-14.92 7.58-15L7.58-15Q7.50-15.39 7.56-15.64Q7.62-15.90 7.54-16.21L7.54-16.21Q7.42-16.68 7.48-16.86Q7.54-17.03 7.54-17.23L7.54-17.23Q7.42-17.81 7.48-18.05Q7.54-18.28 7.58-18.52L7.58-18.52Q7.54-18.95 7.56-18.98Q7.58-19.02 7.58-19.10L7.58-19.10Q7.58-19.26 7.54-19.39Q7.50-19.53 7.54-19.69L7.54-19.69Q7.58-20.12 7.68-20.41Q7.77-20.70 7.70-20.74L7.70-20.74Q7.81-21.05 7.77-21.37Q7.73-21.68 7.77-21.99L7.77-21.99Q7.81-22.34 7.77-22.40Q7.73-22.46 7.70-22.54L7.70-22.54Q7.70-22.70 7.73-22.87Q7.77-23.05 7.77-23.24L7.77-23.24Q7.62-23.79 7.62-24.08Q7.62-24.38 7.42-24.61L7.42-24.61Q7.23-24.88 6.84-24.86Q6.45-24.84 6.17-24.84L6.17-24.84Q6.02-24.84 5.86-24.90Q5.70-24.96 5.55-24.96L5.55-24.96Q5-24.92 4.80-25.02Q4.61-25.12 4.38-25.12L4.38-25.12Q4.30-25.12 3.91-25.10Q3.52-25.08 3.44-25.04L3.44-25.04Q3.36-25.12 3.26-25.06Q3.16-25 3.05-25L3.05-25Q2.70-25.04 2.42-25Q2.15-24.96 2.07-24.88L2.07-24.88Q1.76-24.88 1.48-24.82Q1.21-24.77 1.13-24.77L1.13-24.77Q0.51-24.92 0.35-24.88Q0.20-24.84 0-24.84L0-24.84Q-0.12-24.84-0.21-24.88Q-0.31-24.92-0.39-24.96L-0.39-24.96Q-0.66-24.96-0.94-24.90Q-1.21-24.84-1.48-24.84L-1.48-24.84Q-1.45-24.45-1.48-24.38Q-1.52-24.30-1.56-24.22L-1.56-24.22Q-1.56-24.14-1.54-23.96Q-1.52-23.79-1.50-23.57Q-1.48-23.36-1.45-23.20Q-1.41-23.05-1.37-23.01L-1.37-23.01Q-1.48-22.73-1.46-22.44Q-1.45-22.15-1.45-21.84L-1.45-21.84Q-1.33-21.29-1.35-21.04Q-1.37-20.78-1.45-20.51L-1.45-20.51Q-1.60-20.43-1.68-20.29Q-1.76-20.16-1.84-20.04L-1.84-20.04Q-2.07-20-2.23-20.06Q-2.38-20.12-2.66-19.84L-2.66-19.84Q-2.89-19.88-3.09-19.84L-3.09-19.84Q-3.16-19.92-3.24-19.96Q-3.32-20-3.40-20.08L-3.40-20.08Q-3.71-20.43-3.79-20.68Q-3.87-20.94-3.91-21.21L-3.91-21.21Q-3.71-21.37-3.73-21.72Q-3.75-22.07-3.75-22.27L-3.75-22.27Q-3.75-22.34-3.73-22.46Q-3.71-22.58-3.71-22.70L-3.71-22.70Q-3.83-23.05-3.79-23.11Q-3.75-23.16-3.71-23.24L-3.71-23.24Q-3.79-23.67-3.75-23.79Q-3.71-23.91-3.71-24.06L-3.71-24.06Q-3.75-24.38-3.75-24.63Q-3.75-24.88-3.83-25.20L-3.83-25.20Q-3.87-25.31-3.93-25.41Q-3.98-25.51-3.98-25.63L-3.98-25.63Q-4.02-25.74-3.98-25.84Q-3.95-25.94-3.98-26.02L-3.98-26.02Q-3.91-26.17-3.77-26.27Q-3.63-26.37-3.52-26.52L-3.52-26.52Q-3.20-26.72-3.05-26.72Q-2.89-26.72-2.85-26.84L-2.85-26.84Q-2.62-26.80-2.38-26.82Q-2.15-26.84-1.95-26.72L-1.95-26.72Q-1.60-26.80-1.50-26.78Q-1.41-26.76-1.33-26.76L-1.33-26.76Q-0.94-26.80-0.88-26.74Q-0.82-26.68-0.70-26.64L-0.70-26.64Q-0.47-26.72-0.23-26.68Q0-26.64 0.27-26.56L0.27-26.56Q0.31-26.60 0.49-26.64Q0.66-26.68 0.86-26.70Q1.05-26.72 1.21-26.70Q1.37-26.68 1.41-26.64L1.41-26.64Q2.15-26.88 2.60-26.86Q3.05-26.84 3.52-26.88L3.52-26.88Q3.63-26.88 3.89-26.91Q4.14-26.95 4.39-26.95Q4.65-26.95 4.88-26.93Q5.12-26.91 5.20-26.80L5.20-26.80Q5.31-26.80 5.43-26.82Q5.55-26.84 5.66-26.80L5.66-26.80Q6.09-26.68 6.21-26.72Q6.33-26.76 6.45-26.76L6.45-26.76Q6.80-26.76 7.07-26.68Q7.34-26.60 7.66-26.80L7.66-26.80L8.09-26.64Q8.52-26.76 8.95-26.74Q9.38-26.72 9.80-26.76L9.80-26.76Q9.88-26.76 10.06-26.82Q10.23-26.88 10.31-26.76L10.31-26.76Q10.66-26.88 10.76-26.80Q10.86-26.72 10.94-26.72L10.94-26.72Q11.13-26.64 11.27-26.70Q11.41-26.76 11.56-26.76L11.56-26.76Q11.91-26.64 12.25-26.62Q12.58-26.60 12.66-26.60L12.66-26.60Q12.97-26.72 13.01-26.68Q13.05-26.64 13.13-26.64L13.13-26.64Q13.32-26.68 13.48-26.76Q13.63-26.84 13.83-26.64L13.83-26.64Q14.41-26.80 14.45-26.64L14.45-26.64Q14.80-26.80 15.20-26.82Q15.59-26.84 15.96-26.84Q16.33-26.84 16.62-26.84Q16.91-26.84 17.11-26.95L17.11-26.95Q17.46-26.84 17.54-26.88Q17.62-26.91 17.70-26.88L17.70-26.88Q18.24-26.64 18.46-26.72Q18.67-26.80 18.87-26.80L18.87-26.80Q19.22-26.99 19.32-26.93Q19.41-26.88 19.45-26.99L19.45-26.99Q19.96-26.80 20.12-26.66Q20.27-26.52 20.55-26.52L20.55-26.52Q20.51-26.33 20.64-26.29Q20.78-26.25 20.86-26.09L20.86-26.09Q20.90-25.78 20.96-25.45Q21.02-25.12 20.82-24.84L20.82-24.84Q20.90-24.61 20.94-24.38Q20.98-24.14 20.86-23.87L20.86-23.87Q20.94-23.79 21.00-23.46Q21.05-23.13 21.09-23.09L21.09-23.09Q21.05-22.89 21.00-22.70Q20.94-22.50 21.09-22.30L21.09-22.30Q20.98-21.91 21.09-21.89Q21.21-21.88 21.17-21.76Z M41.33-3.44L41.33-3.44Q41.25-3.36 41.21-3.26Q41.17-3.16 41.09-3.09L41.09-3.09Q41.21-2.73 41.11-2.73Q41.02-2.73 40.98-2.66L40.98-2.66Q40.74-2.30 40.59-2.19Q40.43-2.07 40.29-1.99Q40.16-1.91 40-1.86Q39.84-1.80 39.61-1.64L39.61-1.64Q39.41-1.72 39.28-1.64Q39.14-1.56 38.95-1.56L38.95-1.56Q38.44-1.60 38.32-1.56Q38.20-1.52 38.09-1.48L38.09-1.48Q37.85-1.48 37.62-1.50Q37.38-1.52 37.15-1.45L37.15-1.45Q36.60-1.29 36.29-1.23Q35.98-1.17 35.63-1.13Q35.27-1.09 35-1.13Q34.73-1.17 34.61-1.29L34.61-1.29Q34.53-1.29 34.41-1.27Q34.30-1.25 34.22-1.29L34.22-1.29Q33.91-1.68 33.87-1.72L33.87-1.72Q33.91-1.91 33.83-1.97Q33.75-2.03 33.91-2.15L33.91-2.15Q33.75-2.38 33.77-2.50Q33.79-2.62 33.83-2.70L33.83-2.70Q34.06-2.77 34.22-2.85L34.22-2.85Q34.38-2.93 34.43-3.03Q34.49-3.13 34.65-3.20L34.65-3.20Q35.04-3.24 35.06-3.26Q35.08-3.28 35.16-3.32L35.16-3.32Q35.27-3.36 35.41-3.34Q35.55-3.32 35.63-3.44L35.63-3.44Q35.98-3.40 36.19-3.54Q36.41-3.67 36.64-3.67L36.64-3.67Q36.68-3.98 36.70-4.24Q36.72-4.49 36.80-4.80L36.80-4.80Q36.88-5.08 36.97-5.72Q37.07-6.37 37.07-6.64L37.07-6.64Q37.03-6.88 37.07-6.99Q37.11-7.11 37.15-7.23L37.15-7.23Q37.19-7.50 37.17-7.73Q37.15-7.97 37.15-8.20L37.15-8.20Q37.15-8.40 37.19-8.55Q37.23-8.71 37.23-8.91L37.23-8.91Q37.19-9.30 37.21-9.39Q37.23-9.49 37.23-9.57L37.23-9.57Q37.27-9.77 37.25-9.96Q37.23-10.16 37.19-10.35L37.19-10.35Q37.07-10.70 37.17-10.72Q37.27-10.74 37.23-10.82L37.23-10.82Q37.23-11.05 37.13-11.29Q37.03-11.52 36.99-11.80L36.99-11.80Q36.88-12.15 36.97-12.29Q37.07-12.42 36.91-12.50L36.91-12.50Q36.84-13.09 36.72-13.46Q36.60-13.83 36.37-14.14L36.37-14.14Q36.25-14.30 36.19-14.45Q36.13-14.61 35.94-14.69L35.94-14.69Q35.74-15.23 35.57-15.39Q35.39-15.55 35.12-15.74L35.12-15.74Q34.80-15.82 34.51-15.90Q34.22-15.98 33.95-16.17L33.95-16.17Q33.20-16.25 32.62-15.98L32.62-15.98Q32.23-16.05 31.84-15.92Q31.45-15.78 31.09-15.70L31.09-15.70Q30.74-15.63 30.14-15.47Q29.53-15.31 28.93-15.10Q28.32-14.88 27.75-14.63Q27.19-14.38 26.88-14.18L26.88-14.18Q26.37-13.87 25.90-13.55Q25.43-13.24 24.88-12.93L24.88-12.93Q24.88-12.85 24.86-12.73Q24.84-12.62 24.84-12.50L24.84-12.50Q24.88-12.07 24.84-11.99Q24.80-11.91 24.80-11.84L24.80-11.84Q24.73-11.52 24.77-11.27Q24.80-11.02 24.80-10.70L24.80-10.70Q24.80-10.63 24.77-10.51Q24.73-10.39 24.73-10.31L24.73-10.31Q24.80-10 24.77-9.98Q24.73-9.96 24.73-9.88L24.73-9.88Q24.77-9.69 24.82-9.55Q24.88-9.41 24.88-9.22L24.88-9.22Q24.92-8.95 24.88-8.57Q24.84-8.20 24.96-7.93L24.96-7.93Q25-7.50 25.06-7.40Q25.12-7.30 25.12-7.19L25.12-7.19Q25.08-6.72 25.14-6.56Q25.20-6.41 25.12-6.21L25.12-6.21Q25.27-6.13 25.43-6.19Q25.59-6.25 25.78-6.21L25.78-6.21Q26.29-6.09 26.45-6.15Q26.60-6.21 26.80-6.17L26.80-6.17Q26.91-6.13 27.03-6.05Q27.15-5.98 27.30-5.98L27.30-5.98Q27.30-5.82 27.62-5.66L27.62-5.66Q27.85-5.23 27.75-5.23Q27.66-5.23 27.66-5.16L27.66-5.16Q27.46-4.77 27.36-4.61Q27.27-4.45 27.07-4.41L27.07-4.41Q27.15-4.14 27.03-3.95L27.03-3.95Q26.84-3.95 26.66-3.89Q26.48-3.83 26.29-3.83L26.29-3.83Q25.86-3.83 25.80-3.87Q25.74-3.91 25.66-3.91L25.66-3.91Q25.55-3.91 25.43-3.89Q25.31-3.87 25.16-3.87L25.16-3.87Q24.96-3.87 24.77-3.89Q24.57-3.91 24.38-3.91L24.38-3.91Q24.34-3.91 23.98-3.85Q23.63-3.79 23.26-3.75Q22.89-3.71 22.64-3.71Q22.38-3.71 22.54-3.87L22.54-3.87Q22.27-3.79 21.99-3.75Q21.72-3.71 21.45-3.67L21.45-3.67Q21.13-3.59 21.05-3.73Q20.98-3.87 20.86-3.79L20.86-3.79Q20.70-3.98 20.47-4.10Q20.23-4.22 20.16-4.45L20.16-4.45Q20.23-4.53 20.31-4.69Q20.39-4.84 20.59-4.73L20.59-4.73Q20.63-4.96 20.78-5.16L20.78-5.16Q21.09-5.31 21.21-5.43L21.21-5.43L21.60-5.55Q21.80-5.59 22.01-5.61Q22.23-5.63 22.42-5.70L22.42-5.70Q22.70-5.98 22.66-6.09Q22.62-6.21 22.62-6.33L22.62-6.33Q22.66-6.68 22.62-6.70Q22.58-6.72 22.58-6.80L22.58-6.80Q22.54-6.88 22.52-7.11Q22.50-7.34 22.46-7.42L22.46-7.42Q22.54-7.93 22.50-8.16Q22.46-8.40 22.46-8.63L22.46-8.63Q22.50-9.02 22.46-9.12Q22.42-9.22 22.38-9.34L22.38-9.34Q22.34-9.57 22.38-9.80Q22.42-10.04 22.42-10.31L22.42-10.31Q22.42-10.55 22.38-10.82Q22.34-11.09 22.42-11.37L22.42-11.37Q22.50-11.56 22.48-11.80Q22.46-12.03 22.46-12.23L22.46-12.23Q22.54-12.62 22.54-12.70L22.54-12.70Q22.54-12.89 22.46-13.13L22.46-13.13Q22.46-13.24 22.50-13.36Q22.54-13.48 22.54-13.59L22.54-13.59Q22.54-13.95 22.50-14.32Q22.46-14.69 22.46-15.08L22.46-15.08Q22.46-15.43 22.50-15.47Q22.54-15.51 22.54-15.63L22.54-15.63Q22.46-15.78 22.50-15.84Q22.54-15.90 22.54-16.05L22.54-16.05Q22.46-16.45 22.52-16.72Q22.58-16.99 22.62-17.30Q22.66-17.62 22.66-17.87Q22.66-18.13 22.62-18.20L22.62-18.20Q22.70-18.63 22.73-18.87Q22.77-19.10 22.81-19.39Q22.85-19.69 22.89-19.94Q22.93-20.20 22.93-20.31L22.93-20.31Q22.97-20.51 22.93-20.47Q22.89-20.43 22.97-20.82L22.97-20.82Q23.01-20.86 22.99-21.09Q22.97-21.33 22.97-21.41L22.97-21.41Q23.05-21.68 23.13-21.93Q23.20-22.19 23.20-22.46L23.20-22.46Q23.28-22.77 23.38-22.89Q23.48-23.01 23.40-23.36L23.40-23.36Q23.55-23.55 23.55-23.89Q23.55-24.22 23.55-24.45L23.55-24.45Q23.36-24.45 22.91-24.39Q22.46-24.34 21.97-24.28Q21.48-24.22 21.09-24.18Q20.70-24.14 20.63-24.14L20.63-24.14Q20.51-24.18 20.25-24.45Q20-24.73 19.96-24.84L19.96-24.84Q19.96-25.04 20.04-25.35L20.04-25.35Q20.04-25.55 20.06-25.78Q20.08-26.02 20.20-26.21L20.20-26.21Q20.43-26.21 20.63-26.29Q20.82-26.37 21.02-26.41L21.02-26.41Q21.13-26.45 21.27-26.41Q21.41-26.37 21.56-26.41L21.56-26.41Q22.19-26.56 22.62-26.54Q23.05-26.52 23.32-26.72L23.32-26.72Q23.52-26.68 23.73-26.72Q23.95-26.76 24.20-26.82Q24.45-26.88 24.67-26.95Q24.88-27.03 24.96-27.07L24.96-27.07Q25.20-26.99 25.39-26.99Q25.59-26.99 25.82-26.91L25.82-26.91Q25.82-26.60 25.80-26.17Q25.78-25.74 25.90-25.47L25.90-25.47Q25.86-25.35 25.86-25.16Q25.86-24.96 25.82-24.88L25.82-24.88Q25.66-24.57 25.70-24.43Q25.74-24.30 25.70-24.14L25.70-24.14Q25.70-23.63 25.61-23.09Q25.51-22.54 25.39-22.07L25.39-22.07Q25.23-21.48 25.23-21.04Q25.23-20.59 25.20-20.16L25.20-20.16Q25.12-19.65 25.16-19.51Q25.20-19.38 25.12-19.18L25.12-19.18Q25.08-19.14 25.02-18.77Q24.96-18.40 24.96-18.32L24.96-18.32Q25-17.81 24.92-17.60Q24.84-17.38 24.88-17.11L24.88-17.11Q24.88-16.88 24.88-16.66Q24.88-16.45 24.80-16.25L24.80-16.25Q24.88-15.98 24.84-15.70Q24.80-15.43 24.88-15.16L24.88-15.16Q25.08-15.27 25.45-15.51Q25.82-15.74 25.90-15.94L25.90-15.94Q26.21-16.05 26.48-16.21L26.48-16.21Q26.72-16.33 26.89-16.43Q27.07-16.52 27.15-16.56L27.15-16.56L27.58-16.76Q27.66-16.84 27.75-16.91Q27.85-16.99 27.93-17.07L27.93-17.07Q28.24-17.07 28.46-17.21Q28.67-17.34 28.95-17.42L28.95-17.42L29.34-17.58Q29.65-17.70 29.71-17.66Q29.77-17.62 29.84-17.62L29.84-17.62Q29.92-17.70 30.02-17.75Q30.12-17.81 30.20-17.89L30.20-17.89Q30.39-17.85 30.94-17.93Q31.48-18.01 31.68-18.09L31.68-18.09Q31.95-18.20 32.01-18.16Q32.07-18.13 32.15-18.16L32.15-18.16Q32.50-18.32 32.58-18.30Q32.66-18.28 32.73-18.32L32.73-18.32Q33.05-18.40 33.07-18.38Q33.09-18.36 33.16-18.36L33.16-18.36Q33.48-18.40 33.63-18.44Q33.79-18.48 33.91-18.48L33.91-18.48Q34.06-18.52 34.18-18.46Q34.30-18.40 34.45-18.48L34.45-18.48Q34.57-18.36 34.84-18.26Q35.12-18.16 35.43-18.07Q35.74-17.97 36.04-17.89Q36.33-17.81 36.45-17.73L36.45-17.73Q36.48-17.73 36.62-17.62Q36.76-17.50 36.91-17.36Q37.07-17.23 37.21-17.09Q37.34-16.95 37.38-16.91L37.38-16.91Q37.66-16.37 37.81-16.25Q37.97-16.13 38.09-15.94L38.09-15.94Q38.16-15.78 38.36-15.49Q38.55-15.20 38.63-15.08L38.63-15.08Q38.71-15 38.77-14.88Q38.83-14.77 38.67-14.69L38.67-14.69Q38.87-14.49 39.00-14.00Q39.14-13.52 39.18-13.20L39.18-13.20Q39.26-12.97 39.26-12.73Q39.26-12.50 39.38-12.30L39.38-12.30Q39.45-12.11 39.39-11.66Q39.34-11.21 39.41-10.94L39.41-10.94Q39.61-10.63 39.53-10.63Q39.45-10.63 39.45-10.55L39.45-10.55Q39.65-10.35 39.57-10.18Q39.49-10 39.45-9.80L39.45-9.80Q39.53-9.49 39.53-9.43Q39.53-9.38 39.61-9.34L39.61-9.34Q39.53-8.91 39.57-8.52Q39.61-8.13 39.57-7.70L39.57-7.70Q39.53-7.27 39.45-7.05Q39.38-6.84 39.38-6.64L39.38-6.64Q39.30-6.33 39.39-6.09Q39.49-5.86 39.30-5.66L39.30-5.66Q39.30-5.16 39.32-5.06Q39.34-4.96 39.34-4.92L39.34-4.92Q39.22-4.49 39.24-4.38Q39.26-4.26 39.22-4.10L39.22-4.10Q39.34-4.02 39.41-4.10Q39.49-4.18 39.65-4.14L39.65-4.14Q39.92-4.06 40.14-4.08Q40.35-4.10 40.63-4.10L40.63-4.10Q40.78-3.91 40.98-3.77Q41.17-3.63 41.33-3.44Z M57.93-14.45L57.93-14.45Q57.85-14.38 57.87-14.24Q57.89-14.10 57.85-13.95L57.85-13.95Q57.77-13.63 57.64-13.34Q57.50-13.05 57.42-12.73L57.42-12.73Q57.34-12.66 57.23-12.58Q57.11-12.50 57.07-12.34L57.07-12.34Q56.76-12.38 56.58-12.23Q56.41-12.07 56.05-12.15L56.05-12.15Q55.74-12.23 55.68-12.40Q55.63-12.58 55.39-12.66L55.39-12.66Q55.43-12.85 55.37-12.99Q55.31-13.13 55.35-13.32L55.35-13.32Q55.39-13.44 55.41-13.89Q55.43-14.34 55.51-14.41L55.51-14.41Q55.47-14.53 55.41-14.69Q55.35-14.84 55.39-14.96L55.39-14.96Q54.92-15.16 54.82-15.21Q54.73-15.27 54.61-15.31L54.61-15.31Q54.22-15.31 54.20-15.35Q54.18-15.39 54.10-15.39L54.10-15.39Q53.71-15.39 53.67-15.43Q53.63-15.47 53.55-15.47L53.55-15.47Q53.28-15.51 52.75-15.43Q52.23-15.35 51.99-15.23L51.99-15.23Q51.91-15.35 51.68-15.20Q51.45-15.04 51.37-14.96L51.37-14.96Q51.17-15.04 51.07-14.96Q50.98-14.88 50.82-14.80L50.82-14.80Q50.43-14.61 50.18-14.41Q49.92-14.22 49.61-13.91L49.61-13.91Q49.53-13.83 49.41-13.75Q49.30-13.67 49.26-13.55L49.26-13.55Q49.02-13.55 48.93-13.42Q48.83-13.28 48.63-13.20L48.63-13.20Q48.55-13.05 48.50-12.93Q48.44-12.81 48.36-12.66L48.36-12.66Q48.16-12.58 48.07-12.38Q47.97-12.19 47.77-12.11L47.77-12.11Q47.70-11.99 47.66-11.89Q47.62-11.80 47.50-11.72L47.50-11.72Q47.42-11.52 47.30-11.37Q47.19-11.21 47.15-10.98L47.15-10.98Q46.95-10.51 46.88-10.35Q46.80-10.20 46.80-10L46.80-10Q46.84-9.49 46.82-9.24Q46.80-8.98 46.80-8.71L46.80-8.71Q46.88-7.81 46.80-6.88L46.80-6.88Q46.91-6.60 46.89-6.50Q46.88-6.41 46.84-6.33L46.84-6.33Q46.88-6.21 46.86-6.11Q46.84-6.02 46.91-5.94L46.91-5.94Q46.84-5.74 46.93-5.53Q47.03-5.31 46.88-5.12L46.88-5.12Q47.23-4.69 47.50-4.80L47.50-4.80Q47.54-4.65 47.68-4.65Q47.81-4.65 47.89-4.57L47.89-4.57Q48.32-4.61 48.71-4.49Q49.10-4.38 49.38-4.06L49.38-4.06Q49.41-3.95 49.53-3.95Q49.65-3.95 49.73-3.87L49.73-3.87Q49.69-3.71 49.73-3.57Q49.77-3.44 49.73-3.32L49.73-3.32Q49.69-3.24 49.51-3.01Q49.34-2.77 49.26-2.81L49.26-2.81Q49.26-2.50 49.04-2.50Q48.83-2.50 48.63-2.42L48.63-2.42Q48.32-2.34 48.13-2.29Q47.93-2.23 47.66-2.30L47.66-2.30Q47.50-2.34 47.36-2.40Q47.23-2.46 47.07-2.46L47.07-2.46Q46.76-2.54 46.48-2.48Q46.21-2.42 45.90-2.42L45.90-2.42Q45.47-2.42 45-2.42Q44.53-2.42 44.06-2.34L44.06-2.34L43.59-2.23Q43.40-2.23 43.13-2.27Q42.85-2.30 42.66-2.38L42.66-2.38Q42.23-2.54 42.27-2.66Q42.30-2.77 42.11-2.93L42.11-2.93Q42.27-3.28 42.15-3.55L42.15-3.55Q42.46-3.83 42.58-3.83Q42.70-3.83 42.66-3.95L42.66-3.95Q42.85-3.95 42.95-4.04Q43.05-4.14 43.16-4.22L43.16-4.22Q43.32-4.22 43.55-4.30L43.55-4.30Q43.79-4.38 44.00-4.41Q44.22-4.45 44.34-4.61L44.34-4.61Q44.34-4.65 44.36-4.92Q44.38-5.20 44.39-5.49Q44.41-5.78 44.41-6.05Q44.41-6.33 44.41-6.37L44.41-6.37Q44.34-6.68 44.36-6.72Q44.38-6.76 44.38-6.84L44.38-6.84Q44.38-6.95 44.34-7.05Q44.30-7.15 44.30-7.30L44.30-7.30Q44.30-7.38 44.34-7.50Q44.38-7.62 44.38-7.70L44.38-7.70Q44.41-8.16 44.38-8.63L44.38-8.63Q44.30-8.75 44.38-8.89Q44.45-9.02 44.30-9.18L44.30-9.18Q44.45-9.49 44.43-9.84Q44.41-10.20 44.49-10.55L44.49-10.55Q44.61-10.86 44.63-11.15Q44.65-11.45 44.65-11.56L44.65-11.56Q44.69-11.76 44.67-11.93Q44.65-12.11 44.65-12.30L44.65-12.30Q44.69-12.50 44.73-12.70Q44.77-12.89 44.80-13.09L44.80-13.09Q44.84-13.24 44.75-13.44Q44.65-13.63 44.61-13.71L44.61-13.71Q44.53-14.14 44.57-14.55Q44.61-14.96 44.61-15.39L44.61-15.39Q44.53-15.51 44.38-15.49Q44.22-15.47 44.14-15.63L44.14-15.63Q43.71-15.51 43.34-15.66Q42.97-15.82 42.73-16.13L42.73-16.13Q42.70-16.25 42.73-16.46Q42.77-16.68 42.66-16.72L42.66-16.72Q42.73-16.88 42.87-16.93Q43.01-16.99 43.09-17.11L43.09-17.11Q43.16-17.27 43.11-17.34Q43.05-17.42 43.09-17.50L43.09-17.50Q43.16-17.58 43.32-17.70Q43.48-17.81 43.55-17.85L43.55-17.85Q43.55-17.85 43.75-17.83Q43.95-17.81 44.16-17.79Q44.38-17.77 44.57-17.75Q44.77-17.73 44.77-17.73L44.77-17.73Q45.08-17.77 45.31-17.73Q45.55-17.70 45.78-17.70L45.78-17.70Q45.86-17.70 45.98-17.73Q46.09-17.77 46.21-17.73L46.21-17.73Q46.41-17.70 46.70-17.42Q46.99-17.15 47.07-16.95L47.07-16.95Q47.15-16.72 47.07-16.45Q46.99-16.17 47.15-15.94L47.15-15.94Q47.19-15.70 47.09-15.57Q46.99-15.43 47.23-15.08L47.23-15.08Q47.15-14.96 47.19-14.82Q47.23-14.69 47.15-14.57L47.15-14.57Q47.34-14.61 47.40-14.73Q47.46-14.84 47.54-14.96L47.54-14.96Q47.85-15.04 48.13-15.29Q48.40-15.55 48.59-15.82L48.59-15.82Q48.71-15.98 48.89-16.07Q49.06-16.17 49.22-16.33L49.22-16.33Q49.45-16.41 49.98-16.64Q50.51-16.88 50.66-17.07L50.66-17.07Q51.02-17.07 51.25-17.30L51.25-17.30Q51.45-17.30 51.68-17.34Q51.91-17.38 52.11-17.46L52.11-17.46Q52.30-17.54 52.48-17.50Q52.66-17.46 52.85-17.50L52.85-17.50Q53.24-17.50 53.61-17.56Q53.98-17.62 54.30-17.62L54.30-17.62Q54.53-17.62 55.08-17.54Q55.63-17.46 55.86-17.38L55.86-17.38Q56.05-17.30 56.23-17.23Q56.41-17.15 56.60-17.19L56.60-17.19Q56.64-16.99 56.80-16.91Q56.95-16.84 57.15-16.84L57.15-16.84Q57.58-16.41 57.71-15.70Q57.85-15 57.93-14.45Z M74.92-7.23L74.92-7.23Q74.84-7.03 74.88-6.82Q74.92-6.60 74.88-6.41L74.88-6.41Q74.80-6.21 74.67-6.07Q74.53-5.94 74.61-5.70L74.61-5.70Q74.53-5.63 74.38-5.47Q74.22-5.31 74.06-5.14Q73.91-4.96 73.79-4.80Q73.67-4.65 73.67-4.61L73.67-4.61Q73.40-4.53 73.20-4.36Q73.01-4.18 72.81-3.98L72.81-3.98Q72.73-3.95 72.62-3.93Q72.50-3.91 72.46-3.79L72.46-3.79Q72.27-3.79 72.17-3.67Q72.07-3.55 71.91-3.48L71.91-3.48Q71.76-3.40 71.64-3.36Q71.52-3.32 71.37-3.20L71.37-3.20Q71.17-3.24 70.86-3.16L70.86-3.16Q70.51-3.01 70.27-2.85L70.27-2.85Q70.08-2.93 70-2.87Q69.92-2.81 69.77-2.73L69.77-2.73Q69.45-2.73 69.39-2.70Q69.34-2.66 69.26-2.62L69.26-2.62Q68.91-2.46 68.79-2.50Q68.67-2.54 68.63-2.38L68.63-2.38Q68.32-2.38 68.07-2.36Q67.81-2.34 67.50-2.38L67.50-2.38Q67.15-2.42 67.07-2.38Q66.99-2.34 66.91-2.34L66.91-2.34Q66.84-2.34 66.60-2.32Q66.37-2.30 66.07-2.30Q65.78-2.30 65.55-2.32Q65.31-2.34 65.27-2.34L65.27-2.34Q64.80-2.54 64.65-2.56Q64.49-2.58 64.30-2.66L64.30-2.66Q64.18-2.70 63.96-2.81Q63.75-2.93 63.52-3.05Q63.28-3.16 63.07-3.26Q62.85-3.36 62.77-3.44L62.77-3.44Q62.30-3.67 62.19-3.87Q62.07-4.06 61.80-4.10L61.80-4.10Q61.84-4.18 61.66-4.36Q61.48-4.53 61.45-4.49L61.45-4.49Q61.45-4.69 61.15-5.14Q60.86-5.59 60.70-5.70L60.70-5.70Q60.66-6.02 60.53-6.19Q60.39-6.37 60.20-6.56L60.20-6.56Q60.16-6.91 60-7.25Q59.84-7.58 59.84-7.97L59.84-7.97Q59.80-8.13 59.75-8.16Q59.69-8.20 59.65-8.32L59.65-8.32Q59.53-8.95 59.53-8.95L59.53-8.95Q59.49-9.34 59.45-9.36Q59.41-9.38 59.41-9.41L59.41-9.41Q59.38-9.53 59.38-9.71Q59.38-9.88 59.38-9.96L59.38-9.96Q59.45-10.31 59.43-10.39Q59.41-10.47 59.41-10.55L59.41-10.55Q59.45-10.98 59.38-11.17Q59.30-11.37 59.45-11.60L59.45-11.60Q59.38-11.95 59.41-12.01Q59.45-12.07 59.45-12.15L59.45-12.15Q59.45-12.54 59.51-12.66Q59.57-12.77 59.65-12.89L59.65-12.89Q59.69-13.01 59.77-13.26Q59.84-13.52 59.88-13.63L59.88-13.63Q59.96-13.98 60.02-14.39Q60.08-14.80 60.20-15.16L60.20-15.16Q60.39-15.66 60.43-15.74L60.43-15.74Q60.63-16.05 60.76-16.31Q60.90-16.56 61.09-16.76L61.09-16.76Q61.17-16.88 61.27-16.95Q61.37-17.03 61.45-17.15L61.45-17.15Q61.60-17.34 61.70-17.50Q61.80-17.66 62.03-17.73L62.03-17.73Q62.15-17.93 62.19-18.03Q62.23-18.13 62.46-18.20L62.46-18.20Q62.73-18.40 62.87-18.63Q63.01-18.87 63.40-18.95L63.40-18.95Q63.55-19.14 63.69-19.28Q63.83-19.41 64.10-19.45L64.10-19.45Q64.57-19.69 64.65-19.84Q64.73-20 64.92-20.16L64.92-20.16Q65.12-20.16 65.23-20.23Q65.35-20.31 65.51-20.35L65.51-20.35Q66.05-20.43 66.70-20.41Q67.34-20.39 67.89-20.39L67.89-20.39Q68.44-20.27 68.57-20.33Q68.71-20.39 68.91-20.31L68.91-20.31Q69.10-20.23 69.26-20.16Q69.41-20.08 69.61-20L69.61-20Q69.92-20 70.10-19.90Q70.27-19.80 70.63-19.88L70.63-19.88Q70.90-19.69 70.92-19.65Q70.94-19.61 71.02-19.57L71.02-19.57Q71.52-19.41 71.84-19.20Q72.15-18.98 72.27-18.87L72.27-18.87Q72.34-18.55 72.42-18.48Q72.50-18.40 72.62-18.36L72.62-18.36Q72.70-18.24 72.70-18.09Q72.70-17.93 72.89-17.89L72.89-17.89Q72.85-17.66 72.95-17.54Q73.05-17.42 73.13-17.23L73.13-17.23Q73.32-16.95 73.40-16.82Q73.48-16.68 73.48-16.48L73.48-16.48Q73.48-16.41 73.57-16.31Q73.67-16.21 73.71-16.13L73.71-16.13Q73.83-15.78 73.79-15.74Q73.75-15.70 73.79-15.63L73.79-15.63Q73.87-15.47 73.95-15.37Q74.02-15.27 74.06-15.16L74.06-15.16Q74.14-14.96 74.12-14.77Q74.10-14.57 74.18-14.38L74.18-14.38Q74.26-14.10 74.34-13.79Q74.41-13.48 74.53-13.24L74.53-13.24Q74.53-12.85 74.57-12.83Q74.61-12.81 74.61-12.73L74.61-12.73Q74.57-12.70 74.51-12.52Q74.45-12.34 74.41-12.34L74.41-12.34Q74.57-12.03 74.45-11.84L74.45-11.84L74.14-11.48Q73.98-11.45 73.73-11.27Q73.48-11.09 73.44-10.94L73.44-10.94Q73.13-10.90 73.03-10.94Q72.93-10.98 72.81-10.94L72.81-10.94Q72.46-10.78 72.30-10.78Q72.15-10.78 71.95-10.70L71.95-10.70Q71.84-10.78 71.68-10.78Q71.52-10.78 71.41-10.82L71.41-10.82Q71.05-10.82 71.02-10.86Q70.98-10.90 70.90-10.90L70.90-10.90Q70.70-10.90 70.53-10.88Q70.35-10.86 70.16-10.86L70.16-10.86Q70.04-10.86 69.94-10.88Q69.84-10.90 69.73-10.90L69.73-10.90Q69.45-10.86 69.34-10.90Q69.22-10.94 69.10-10.94L69.10-10.94Q68.87-10.94 68.65-10.90Q68.44-10.86 68.20-10.86L68.20-10.86Q67.62-10.86 67.03-11.04Q66.45-11.21 65.90-11.17L65.90-11.17Q65.82-11.17 65.70-11.15Q65.59-11.13 65.51-11.13L65.51-11.13Q65.16-11.25 65.08-11.21Q65-11.17 64.92-11.17L64.92-11.17Q64.73-11.17 64.53-11.23Q64.34-11.29 64.14-11.25L64.14-11.25Q64.02-11.25 63.95-11.23Q63.87-11.21 63.75-11.17L63.75-11.17Q63.55-11.13 63.38-11.17Q63.20-11.21 63.01-11.21L63.01-11.21Q62.70-11.21 62.40-11.15Q62.11-11.09 61.80-11.13L61.80-11.13Q61.72-11.02 61.76-10.86Q61.80-10.70 61.80-10.59L61.80-10.59Q61.80-10.12 61.84-10Q61.88-9.88 61.91-9.73L61.91-9.73Q61.95-9.65 61.93-9.51Q61.91-9.38 61.95-9.30L61.95-9.30Q61.99-9.18 62.03-9.08Q62.07-8.98 62.11-8.91L62.11-8.91Q62.11-8.52 62.21-8.22Q62.30-7.93 62.42-7.62Q62.54-7.30 62.66-7.03Q62.77-6.76 62.85-6.72L62.85-6.72Q62.93-6.52 62.93-6.35Q62.93-6.17 63.16-6.05L63.16-6.05Q63.36-5.90 63.40-5.80Q63.44-5.70 63.52-5.63L63.52-5.63Q63.67-5.39 63.73-5.41Q63.79-5.43 63.87-5.20L63.87-5.20Q64.34-5.08 64.41-4.88L64.41-4.88Q64.53-4.77 64.59-4.75Q64.65-4.73 64.73-4.65L64.73-4.65Q65.16-4.73 65.27-4.61Q65.39-4.49 65.70-4.41L65.70-4.41Q65.86-4.38 66.29-4.38Q66.72-4.38 67.19-4.39Q67.66-4.41 68.09-4.47Q68.52-4.53 68.67-4.57L68.67-4.57Q69.34-4.80 69.73-4.86Q70.12-4.92 70.47-5.12L70.47-5.12Q70.82-5.31 70.96-5.31Q71.09-5.31 71.25-5.39L71.25-5.39Q71.33-5.47 71.35-5.51Q71.37-5.55 71.64-5.59L71.64-5.59Q71.68-5.63 71.84-5.82Q71.99-6.02 72.17-6.23Q72.34-6.45 72.48-6.64Q72.62-6.84 72.66-6.91L72.66-6.91Q72.77-7.03 72.91-7.13Q73.05-7.23 73.05-7.42L73.05-7.42Q73.36-7.50 73.48-7.81L73.48-7.81Q73.67-7.81 73.83-7.89Q73.98-7.97 74.18-8.05L74.18-8.05Q74.34-8.01 74.41-7.91Q74.49-7.81 74.65-7.73L74.65-7.73Q74.73-7.62 74.79-7.50Q74.84-7.38 74.92-7.23ZM72.42-13.20L72.42-13.20Q72.46-13.48 72.34-13.69Q72.23-13.91 72.19-14.18L72.19-14.18Q72.03-14.57 71.91-14.94Q71.80-15.31 71.72-15.47L71.72-15.47Q71.64-15.63 71.52-15.70Q71.41-15.78 71.45-15.98L71.45-15.98Q71.37-15.98 71.13-16.37Q70.90-16.76 70.86-16.84L70.86-16.84Q70.66-17.15 70.47-17.23L70.47-17.23Q70.39-17.30 70.37-17.42Q70.35-17.54 70.20-17.58L70.20-17.58Q69.92-17.70 69.69-17.77Q69.45-17.85 69.38-17.97L69.38-17.97Q69.22-17.97 69.12-18.01Q69.02-18.05 68.91-18.01L68.91-18.01Q68.32-18.32 68.07-18.32Q67.81-18.32 67.54-18.24L67.54-18.24Q67.46-18.36 67.17-18.38Q66.88-18.40 66.76-18.32L66.76-18.32Q66.64-18.28 66.52-18.30Q66.41-18.32 66.29-18.32L66.29-18.32Q66.21-18.20 66.07-18.20Q65.94-18.20 65.86-18.13L65.86-18.13Q65.66-18.05 65.53-17.91Q65.39-17.77 65.16-17.85L65.16-17.85Q65-17.66 64.96-17.66Q64.92-17.66 64.77-17.58L64.77-17.58Q64.57-17.34 64.53-17.34Q64.49-17.34 64.41-17.30L64.41-17.30Q64.30-17.23 64.24-17.09Q64.18-16.95 64.10-16.88L64.10-16.88Q63.95-16.68 63.54-16.23Q63.13-15.78 62.93-15.66L62.93-15.66Q62.85-15.47 62.77-15.27Q62.70-15.08 62.54-14.88L62.54-14.88Q62.38-14.57 62.25-14.10Q62.11-13.63 62.15-13.55L62.15-13.55Q62.19-13.52 62.36-13.50Q62.54-13.48 62.77-13.46Q63.01-13.44 63.20-13.44Q63.40-13.44 63.48-13.44L63.48-13.44Q64.06-13.59 64.34-13.57Q64.61-13.55 64.88-13.63L64.88-13.63Q65.23-13.48 65.35-13.55Q65.47-13.63 65.74-13.63L65.74-13.63Q66.05-13.63 66.46-13.55Q66.88-13.48 66.95-13.44L66.95-13.44Q67.89-13.24 68.52-13.14Q69.14-13.05 69.73-13.24L69.73-13.24Q69.84-13.13 69.96-13.16Q70.08-13.20 70.23-13.20L70.23-13.20Q70.27-13.13 70.43-13.13Q70.59-13.13 70.78-13.14Q70.98-13.16 71.15-13.18Q71.33-13.20 71.41-13.20L71.41-13.20Q71.64-13.24 71.91-13.18Q72.19-13.13 72.42-13.20Z M92.46-7.23L92.46-7.23Q92.38-7.03 92.42-6.82Q92.46-6.60 92.42-6.41L92.42-6.41Q92.34-6.21 92.21-6.07Q92.07-5.94 92.15-5.70L92.15-5.70Q92.07-5.63 91.91-5.47Q91.76-5.31 91.60-5.14Q91.45-4.96 91.33-4.80Q91.21-4.65 91.21-4.61L91.21-4.61Q90.94-4.53 90.74-4.36Q90.55-4.18 90.35-3.98L90.35-3.98Q90.27-3.95 90.16-3.93Q90.04-3.91 90-3.79L90-3.79Q89.80-3.79 89.71-3.67Q89.61-3.55 89.45-3.48L89.45-3.48Q89.30-3.40 89.18-3.36Q89.06-3.32 88.91-3.20L88.91-3.20Q88.71-3.24 88.40-3.16L88.40-3.16Q88.05-3.01 87.81-2.85L87.81-2.85Q87.62-2.93 87.54-2.87Q87.46-2.81 87.30-2.73L87.30-2.73Q86.99-2.73 86.93-2.70Q86.88-2.66 86.80-2.62L86.80-2.62Q86.45-2.46 86.33-2.50Q86.21-2.54 86.17-2.38L86.17-2.38Q85.86-2.38 85.61-2.36Q85.35-2.34 85.04-2.38L85.04-2.38Q84.69-2.42 84.61-2.38Q84.53-2.34 84.45-2.34L84.45-2.34Q84.38-2.34 84.14-2.32Q83.91-2.30 83.61-2.30Q83.32-2.30 83.09-2.32Q82.85-2.34 82.81-2.34L82.81-2.34Q82.34-2.54 82.19-2.56Q82.03-2.58 81.84-2.66L81.84-2.66Q81.72-2.70 81.50-2.81Q81.29-2.93 81.05-3.05Q80.82-3.16 80.61-3.26Q80.39-3.36 80.31-3.44L80.31-3.44Q79.84-3.67 79.73-3.87Q79.61-4.06 79.34-4.10L79.34-4.10Q79.38-4.18 79.20-4.36Q79.02-4.53 78.98-4.49L78.98-4.49Q78.98-4.69 78.69-5.14Q78.40-5.59 78.24-5.70L78.24-5.70Q78.20-6.02 78.07-6.19Q77.93-6.37 77.73-6.56L77.73-6.56Q77.70-6.91 77.54-7.25Q77.38-7.58 77.38-7.97L77.38-7.97Q77.34-8.13 77.29-8.16Q77.23-8.20 77.19-8.32L77.19-8.32Q77.07-8.95 77.07-8.95L77.07-8.95Q77.03-9.34 76.99-9.36Q76.95-9.38 76.95-9.41L76.95-9.41Q76.91-9.53 76.91-9.71Q76.91-9.88 76.91-9.96L76.91-9.96Q76.99-10.31 76.97-10.39Q76.95-10.47 76.95-10.55L76.95-10.55Q76.99-10.98 76.91-11.17Q76.84-11.37 76.99-11.60L76.99-11.60Q76.91-11.95 76.95-12.01Q76.99-12.07 76.99-12.15L76.99-12.15Q76.99-12.54 77.05-12.66Q77.11-12.77 77.19-12.89L77.19-12.89Q77.23-13.01 77.30-13.26Q77.38-13.52 77.42-13.63L77.42-13.63Q77.50-13.98 77.56-14.39Q77.62-14.80 77.73-15.16L77.73-15.16Q77.93-15.66 77.97-15.74L77.97-15.74Q78.16-16.05 78.30-16.31Q78.44-16.56 78.63-16.76L78.63-16.76Q78.71-16.88 78.81-16.95Q78.91-17.03 78.98-17.15L78.98-17.15Q79.14-17.34 79.24-17.50Q79.34-17.66 79.57-17.73L79.57-17.73Q79.69-17.93 79.73-18.03Q79.77-18.13 80-18.20L80-18.20Q80.27-18.40 80.41-18.63Q80.55-18.87 80.94-18.95L80.94-18.95Q81.09-19.14 81.23-19.28Q81.37-19.41 81.64-19.45L81.64-19.45Q82.11-19.69 82.19-19.84Q82.27-20 82.46-20.16L82.46-20.16Q82.66-20.16 82.77-20.23Q82.89-20.31 83.05-20.35L83.05-20.35Q83.59-20.43 84.24-20.41Q84.88-20.39 85.43-20.39L85.43-20.39Q85.98-20.27 86.11-20.33Q86.25-20.39 86.45-20.31L86.45-20.31Q86.64-20.23 86.80-20.16Q86.95-20.08 87.15-20L87.15-20Q87.46-20 87.64-19.90Q87.81-19.80 88.16-19.88L88.16-19.88Q88.44-19.69 88.46-19.65Q88.48-19.61 88.55-19.57L88.55-19.57Q89.06-19.41 89.38-19.20Q89.69-18.98 89.80-18.87L89.80-18.87Q89.88-18.55 89.96-18.48Q90.04-18.40 90.16-18.36L90.16-18.36Q90.23-18.24 90.23-18.09Q90.23-17.93 90.43-17.89L90.43-17.89Q90.39-17.66 90.49-17.54Q90.59-17.42 90.66-17.23L90.66-17.23Q90.86-16.95 90.94-16.82Q91.02-16.68 91.02-16.48L91.02-16.48Q91.02-16.41 91.11-16.31Q91.21-16.21 91.25-16.13L91.25-16.13Q91.37-15.78 91.33-15.74Q91.29-15.70 91.33-15.63L91.33-15.63Q91.41-15.47 91.48-15.37Q91.56-15.27 91.60-15.16L91.60-15.16Q91.68-14.96 91.66-14.77Q91.64-14.57 91.72-14.38L91.72-14.38Q91.80-14.10 91.88-13.79Q91.95-13.48 92.07-13.24L92.07-13.24Q92.07-12.85 92.11-12.83Q92.15-12.81 92.15-12.73L92.15-12.73Q92.11-12.70 92.05-12.52Q91.99-12.34 91.95-12.34L91.95-12.34Q92.11-12.03 91.99-11.84L91.99-11.84L91.68-11.48Q91.52-11.45 91.27-11.27Q91.02-11.09 90.98-10.94L90.98-10.94Q90.66-10.90 90.57-10.94Q90.47-10.98 90.35-10.94L90.35-10.94Q90-10.78 89.84-10.78Q89.69-10.78 89.49-10.70L89.49-10.70Q89.38-10.78 89.22-10.78Q89.06-10.78 88.95-10.82L88.95-10.82Q88.59-10.82 88.55-10.86Q88.52-10.90 88.44-10.90L88.44-10.90Q88.24-10.90 88.07-10.88Q87.89-10.86 87.70-10.86L87.70-10.86Q87.58-10.86 87.48-10.88Q87.38-10.90 87.27-10.90L87.27-10.90Q86.99-10.86 86.88-10.90Q86.76-10.94 86.64-10.94L86.64-10.94Q86.41-10.94 86.19-10.90Q85.98-10.86 85.74-10.86L85.74-10.86Q85.16-10.86 84.57-11.04Q83.98-11.21 83.44-11.17L83.44-11.17Q83.36-11.17 83.24-11.15Q83.13-11.13 83.05-11.13L83.05-11.13Q82.70-11.25 82.62-11.21Q82.54-11.17 82.46-11.17L82.46-11.17Q82.27-11.17 82.07-11.23Q81.88-11.29 81.68-11.25L81.68-11.25Q81.56-11.25 81.48-11.23Q81.41-11.21 81.29-11.17L81.29-11.17Q81.09-11.13 80.92-11.17Q80.74-11.21 80.55-11.21L80.55-11.21Q80.23-11.21 79.94-11.15Q79.65-11.09 79.34-11.13L79.34-11.13Q79.26-11.02 79.30-10.86Q79.34-10.70 79.34-10.59L79.34-10.59Q79.34-10.12 79.38-10Q79.41-9.88 79.45-9.73L79.45-9.73Q79.49-9.65 79.47-9.51Q79.45-9.38 79.49-9.30L79.49-9.30Q79.53-9.18 79.57-9.08Q79.61-8.98 79.65-8.91L79.65-8.91Q79.65-8.52 79.75-8.22Q79.84-7.93 79.96-7.62Q80.08-7.30 80.20-7.03Q80.31-6.76 80.39-6.72L80.39-6.72Q80.47-6.52 80.47-6.35Q80.47-6.17 80.70-6.05L80.70-6.05Q80.90-5.90 80.94-5.80Q80.98-5.70 81.05-5.63L81.05-5.63Q81.21-5.39 81.27-5.41Q81.33-5.43 81.41-5.20L81.41-5.20Q81.88-5.08 81.95-4.88L81.95-4.88Q82.07-4.77 82.13-4.75Q82.19-4.73 82.27-4.65L82.27-4.65Q82.70-4.73 82.81-4.61Q82.93-4.49 83.24-4.41L83.24-4.41Q83.40-4.38 83.83-4.38Q84.26-4.38 84.73-4.39Q85.20-4.41 85.63-4.47Q86.05-4.53 86.21-4.57L86.21-4.57Q86.88-4.80 87.27-4.86Q87.66-4.92 88.01-5.12L88.01-5.12Q88.36-5.31 88.50-5.31Q88.63-5.31 88.79-5.39L88.79-5.39Q88.87-5.47 88.89-5.51Q88.91-5.55 89.18-5.59L89.18-5.59Q89.22-5.63 89.38-5.82Q89.53-6.02 89.71-6.23Q89.88-6.45 90.02-6.64Q90.16-6.84 90.20-6.91L90.20-6.91Q90.31-7.03 90.45-7.13Q90.59-7.23 90.59-7.42L90.59-7.42Q90.90-7.50 91.02-7.81L91.02-7.81Q91.21-7.81 91.37-7.89Q91.52-7.97 91.72-8.05L91.72-8.05Q91.88-8.01 91.95-7.91Q92.03-7.81 92.19-7.73L92.19-7.73Q92.27-7.62 92.32-7.50Q92.38-7.38 92.46-7.23ZM89.96-13.20L89.96-13.20Q90-13.48 89.88-13.69Q89.77-13.91 89.73-14.18L89.73-14.18Q89.57-14.57 89.45-14.94Q89.34-15.31 89.26-15.47L89.26-15.47Q89.18-15.63 89.06-15.70Q88.95-15.78 88.98-15.98L88.98-15.98Q88.91-15.98 88.67-16.37Q88.44-16.76 88.40-16.84L88.40-16.84Q88.20-17.15 88.01-17.23L88.01-17.23Q87.93-17.30 87.91-17.42Q87.89-17.54 87.73-17.58L87.73-17.58Q87.46-17.70 87.23-17.77Q86.99-17.85 86.91-17.97L86.91-17.97Q86.76-17.97 86.66-18.01Q86.56-18.05 86.45-18.01L86.45-18.01Q85.86-18.32 85.61-18.32Q85.35-18.32 85.08-18.24L85.08-18.24Q85-18.36 84.71-18.38Q84.41-18.40 84.30-18.32L84.30-18.32Q84.18-18.28 84.06-18.30Q83.95-18.32 83.83-18.32L83.83-18.32Q83.75-18.20 83.61-18.20Q83.48-18.20 83.40-18.13L83.40-18.13Q83.20-18.05 83.07-17.91Q82.93-17.77 82.70-17.85L82.70-17.85Q82.54-17.66 82.50-17.66Q82.46-17.66 82.30-17.58L82.30-17.58Q82.11-17.34 82.07-17.34Q82.03-17.34 81.95-17.30L81.95-17.30Q81.84-17.23 81.78-17.09Q81.72-16.95 81.64-16.88L81.64-16.88Q81.48-16.68 81.07-16.23Q80.66-15.78 80.47-15.66L80.47-15.66Q80.39-15.47 80.31-15.27Q80.23-15.08 80.08-14.88L80.08-14.88Q79.92-14.57 79.79-14.10Q79.65-13.63 79.69-13.55L79.69-13.55Q79.73-13.52 79.90-13.50Q80.08-13.48 80.31-13.46Q80.55-13.44 80.74-13.44Q80.94-13.44 81.02-13.44L81.02-13.44Q81.60-13.59 81.88-13.57Q82.15-13.55 82.42-13.63L82.42-13.63Q82.77-13.48 82.89-13.55Q83.01-13.63 83.28-13.63L83.28-13.63Q83.59-13.63 84.00-13.55Q84.41-13.48 84.49-13.44L84.49-13.44Q85.43-13.24 86.05-13.14Q86.68-13.05 87.27-13.24L87.27-13.24Q87.38-13.13 87.50-13.16Q87.62-13.20 87.77-13.20L87.77-13.20Q87.81-13.13 87.97-13.13Q88.13-13.13 88.32-13.14Q88.52-13.16 88.69-13.18Q88.87-13.20 88.95-13.20L88.95-13.20Q89.18-13.24 89.45-13.18Q89.73-13.13 89.96-13.20Z M118.95-0.70L118.95-0.70Q118.87-0.51 118.81-0.33Q118.75-0.16 118.67 0.04L118.67 0.04Q118.40 0.16 118.32 0.31L118.32 0.31Q118.16 0.31 117.99 0.33Q117.81 0.35 117.70 0.43L117.70 0.43Q117.54 0.39 117.46 0.35Q117.38 0.31 117.27 0.43L117.27 0.43Q117.15 0.39 117.03 0.33Q116.91 0.27 116.80 0.23L116.80 0.23Q116.48 0.16 116.13 0.20Q115.78 0.23 115.47 0.23L115.47 0.23Q115.08 0.20 115.02 0.21Q114.96 0.23 114.80 0.20L114.80 0.20Q114.73 0.20 114.49 0.12Q114.26 0.04 113.96-0.02Q113.67-0.08 113.44-0.14Q113.20-0.20 113.16-0.20L113.16-0.20Q112.97-0.20 112.75-0.12Q112.54-0.04 112.34-0.20L112.34-0.20Q112.03-0.08 111.93-0.16Q111.84-0.23 111.56-0.27L111.56-0.27Q111.33-0.31 111.23-0.27Q111.13-0.23 110.78-0.31L110.78-0.31Q110.39-0.35 110.12-0.57Q109.84-0.78 109.73-0.82L109.73-0.82Q109.73-0.94 109.67-1.02Q109.61-1.09 109.57-1.21L109.57-1.21Q109.73-1.60 109.84-1.68Q109.96-1.76 110.16-1.84L110.16-1.84Q110.20-1.95 110.31-1.99Q110.43-2.03 110.51-2.11L110.51-2.11Q110.63-2.07 110.90-2.11Q111.17-2.15 111.48-2.17Q111.80-2.19 112.07-2.19Q112.34-2.19 112.42-2.11L112.42-2.11Q112.62-2.30 112.46-2.50L112.46-2.50Q112.54-2.97 112.60-3.13Q112.66-3.28 112.66-3.48L112.66-3.48Q112.70-4.06 112.62-4.30Q112.54-4.53 112.54-4.77L112.54-4.77Q112.58-5.12 112.46-5.39Q112.34-5.66 112.27-5.74L112.27-5.74Q112.30-5.82 112.25-6.05Q112.19-6.29 112.11-6.37L112.11-6.37Q111.91-6.76 111.80-7.05Q111.68-7.34 111.45-7.30L111.45-7.30Q111.33-7.70 111.25-7.89Q111.17-8.09 111.07-8.22Q110.98-8.36 110.80-8.48Q110.63-8.59 110.35-8.87L110.35-8.87Q110.27-8.95 110.21-9.00Q110.16-9.06 110.16-9.22L110.16-9.22Q110-9.18 109.92-9.24Q109.84-9.30 109.79-9.38Q109.73-9.45 109.65-9.51Q109.57-9.57 109.41-9.53L109.41-9.53Q109.38-9.65 109.26-9.69Q109.14-9.73 109.10-9.84L109.10-9.84Q109.06-9.84 108.87-9.86Q108.67-9.88 108.48-9.90Q108.28-9.92 108.09-9.96Q107.89-10 107.85-10.04L107.85-10.04Q107.66-9.96 107.40-10.02Q107.15-10.08 106.95-10.08L106.95-10.08Q106.80-10.12 106.68-10.08Q106.56-10.04 106.45-10.04L106.45-10.04Q106.02-10.08 105.90-10.02Q105.78-9.96 105.66-9.96L105.66-9.96Q105.43-9.92 105.20-9.96Q104.96-10 104.77-9.80L104.77-9.80Q104.57-9.77 104.38-9.77Q104.18-9.77 104.06-9.73L104.06-9.73Q103.71-9.77 103.52-9.88Q103.32-10 103.24-9.80L103.24-9.80Q102.93-9.84 102.81-9.79Q102.70-9.73 102.54-9.73L102.54-9.73Q102.03-9.84 101.89-9.82Q101.76-9.80 101.56-9.80L101.56-9.80Q101.17-9.96 101.04-9.90Q100.90-9.84 100.74-9.84L100.74-9.84Q100.55-9.88 100.41-9.90Q100.27-9.92 100.08-9.84L100.08-9.84Q100-9.92 99.88-9.92Q99.77-9.92 99.73-10.04L99.73-10.04Q99.38-10 99.02-10.10Q98.67-10.20 98.28-10.12L98.28-10.12Q98.09-9.92 98.20-9.67Q98.32-9.41 98.28-9.18L98.28-9.18Q98.28-8.71 98.22-8.61Q98.16-8.52 98.20-8.32L98.20-8.32Q98.36-7.85 98.28-7.77Q98.20-7.70 98.16-7.62L98.16-7.62Q98.13-7.15 98.18-7.03Q98.24-6.91 98.24-6.80L98.24-6.80Q98.20-6.48 98.22-6.41Q98.24-6.33 98.24-6.25L98.24-6.25Q98.13-5.90 98.16-5.82Q98.20-5.74 98.20-5.66L98.20-5.66L98.09-5.23Q98.13-4.92 98.11-4.94Q98.09-4.96 98.05-4.77L98.05-4.77Q98.13-4.45 98.09-4.38Q98.05-4.30 98.05-4.22L98.05-4.22Q98.05-3.98 98.07-3.77Q98.09-3.55 98.09-3.32L98.09-3.32Q97.89-3.16 97.89-2.85Q97.89-2.54 98.20-2.46L98.20-2.46Q98.44-2.50 98.55-2.70L98.55-2.70Q98.91-2.38 99.45-2.58L99.45-2.58Q99.73-2.73 99.82-2.71Q99.92-2.70 100-2.73L100-2.73Q100.16-2.77 100.39-2.91Q100.63-3.05 100.74-2.85L100.74-2.85Q101.09-2.85 101.15-2.87Q101.21-2.89 101.33-2.85L101.33-2.85Q101.72-2.58 101.80-2.44Q101.88-2.30 101.99-2.23L101.99-2.23Q101.91-1.91 101.95-1.64Q101.99-1.37 101.84-1.05L101.84-1.05Q101.52-0.98 101.45-1.05Q101.37-1.13 101.05-0.82L101.05-0.82Q101.02-0.86 100.72-0.82Q100.43-0.78 100.39-0.74L100.39-0.74Q99.88-0.55 99.69-0.59Q99.49-0.63 99.30-0.55L99.30-0.55Q98.95-0.51 98.79-0.43L98.79-0.43Q98.59-0.55 98.38-0.53Q98.16-0.51 97.97-0.59L97.97-0.59Q97.85-0.59 97.66-0.51Q97.46-0.43 97.30-0.51L97.30-0.51Q97.07-0.51 96.72-0.57Q96.37-0.63 96.17-0.47L96.17-0.47Q95.90-0.55 95.64-0.47Q95.39-0.39 95.16-0.43L95.16-0.43Q95-0.35 94.77-0.20L94.77-0.20Q94.69-0.27 94.49-0.25Q94.30-0.23 94.30-0.16L94.30-0.16L93.83-0.16Q93.48-0.08 93.38 0.02Q93.28 0.12 92.93-0.27L92.93-0.27Q92.58-0.27 92.42-0.43L92.42-0.43Q91.64-0.86 91.99-1.56L91.99-1.56Q92.27-1.68 92.42-1.84L92.42-1.84Q92.62-1.91 92.85-1.89Q93.09-1.88 93.24-2.07L93.24-2.07Q93.48-1.99 93.63-1.99L93.63-1.99Q93.71-1.88 93.79-2.03Q93.87-2.19 94.02-1.99L94.02-1.99Q94.14-2.03 94.26-2.09Q94.38-2.15 94.49-2.19L94.49-2.19Q94.84-2.19 95.12-2.30Q95.39-2.42 95.47-2.50L95.47-2.50Q95.39-3.01 95.41-3.18Q95.43-3.36 95.47-3.55L95.47-3.55Q95.51-3.63 95.55-3.73Q95.59-3.83 95.59-3.95L95.59-3.95Q95.55-4.30 95.59-4.43Q95.63-4.57 95.55-4.61L95.55-4.61Q95.66-5.04 95.63-5.20Q95.59-5.35 95.66-5.51L95.66-5.51L95.70-6.37L95.70-7.54Q95.86-7.93 95.76-7.93Q95.66-7.93 95.70-8.05L95.70-8.05Q95.78-8.16 95.80-8.40Q95.82-8.63 95.74-8.75L95.74-8.75Q95.94-9.61 95.82-10.12Q95.70-10.63 95.78-11.25L95.78-11.25Q95.63-11.68 95.70-11.72Q95.78-11.76 95.78-11.84L95.78-11.84Q95.70-11.99 95.74-12.15Q95.78-12.30 95.78-12.46L95.78-12.46Q95.78-12.66 95.74-12.83Q95.70-13.01 95.70-13.20L95.70-13.20Q95.63-13.55 95.72-13.85Q95.82-14.14 95.70-14.34L95.70-14.34Q95.82-14.88 95.70-15.06Q95.59-15.23 95.66-15.55L95.66-15.55L95.70-16.72Q95.63-16.99 95.57-17.09Q95.51-17.19 95.74-17.50L95.74-17.50Q95.66-17.62 95.70-17.75Q95.74-17.89 95.74-18.01L95.74-18.01Q95.66-18.16 95.70-18.32Q95.74-18.48 95.80-18.65Q95.86-18.83 95.86-19.00Q95.86-19.18 95.70-19.30L95.70-19.30Q95.86-19.49 95.82-19.65Q95.78-19.80 95.70-19.88L95.70-19.88Q95.82-20.12 95.76-20.39Q95.70-20.66 95.70-20.94L95.70-20.94Q95.82-21.45 95.70-21.56Q95.59-21.68 95.70-21.88L95.70-21.88Q95.70-22.03 95.64-22.17Q95.59-22.30 95.59-22.46L95.59-22.46Q95.55-22.93 95.53-23.50Q95.51-24.06 95.47-24.49L95.47-24.49Q95.43-24.73 95.31-25.02Q95.20-25.31 95.20-25.51L95.20-25.51Q95.12-25.90 95.04-26.17Q94.96-26.45 94.77-26.56L94.77-26.56Q94.45-26.52 94.16-26.46Q93.87-26.41 93.55-26.33L93.55-26.33Q93.16-26.09 93.05-26.11Q92.93-26.13 92.81-26.09L92.81-26.09Q92.66-26.05 92.42-25.96Q92.19-25.86 92.03-25.78L92.03-25.78Q91.56-25.78 91.45-25.98L91.45-25.98Q90.94-26.09 90.88-26.41Q90.82-26.72 90.82-27.03L90.82-27.03Q90.94-27.27 91.17-27.40Q91.41-27.54 91.64-27.62L91.64-27.62Q92.03-27.62 92.30-27.68Q92.58-27.73 92.77-27.81L92.77-27.81Q92.85-27.85 92.93-27.91Q93.01-27.97 93.09-28.05L93.09-28.05Q93.16-28.13 93.26-28.13Q93.36-28.13 93.44-28.24L93.44-28.24Q93.79-28.16 93.89-28.32Q93.98-28.48 94.06-28.52L94.06-28.52Q94.18-28.55 94.28-28.50Q94.38-28.44 94.45-28.48L94.45-28.48Q94.65-28.55 94.88-28.65Q95.12-28.75 95.39-28.75L95.39-28.75Q95.47-28.75 95.59-28.71Q95.70-28.67 95.78-28.71L95.78-28.71Q95.98-28.71 96.23-28.81Q96.48-28.91 96.68-28.75L96.68-28.75Q96.80-28.79 97.03-28.83Q97.27-28.87 97.56-28.93Q97.85-28.98 98.11-29.02Q98.36-29.06 98.48-29.06L98.48-29.06Q98.79-29.06 99.22-29.00Q99.65-28.95 99.92-29.22L99.92-29.22Q100.23-29.06 100.29-29.10Q100.35-29.14 100.43-29.14L100.43-29.14L100.82-29.26Q100.98-29.18 101.52-29.18Q102.07-29.18 102.23-29.26L102.23-29.26Q102.77-29.30 103.20-29.22Q103.63-29.14 103.98-29.14L103.98-29.14Q104.14-29.18 104.28-29.22Q104.41-29.26 104.57-29.26L104.57-29.26Q105-29.22 105.08-29.22L105.08-29.22Q105.39-29.18 105.68-29.12Q105.98-29.06 106.29-29.06L106.29-29.06Q106.68-29.18 106.93-29.08Q107.19-28.98 107.27-29.06L107.27-29.06Q107.73-28.83 107.85-28.81Q107.97-28.79 108.16-28.63L108.16-28.63Q108.63-28.75 109.06-28.55L109.06-28.55Q109.41-28.63 109.69-28.50Q109.96-28.36 110.20-28.13L110.20-28.13Q110.51-28.09 110.76-27.99Q111.02-27.89 111.33-27.89L111.33-27.89Q111.41-27.77 111.52-27.70Q111.64-27.62 111.72-27.50L111.72-27.50Q111.84-27.54 111.93-27.48Q112.03-27.42 112.11-27.46L112.11-27.46Q112.19-27.34 112.48-27.25Q112.77-27.15 112.97-26.84L112.97-26.84Q113.24-26.64 113.26-26.62Q113.28-26.60 113.32-26.60L113.32-26.60Q113.52-26.45 113.73-26.29Q113.95-26.13 114.18-26.05L114.18-26.05Q114.53-25.94 114.53-25.82L114.53-25.82Q114.92-25.55 115.02-25.47Q115.12-25.39 115.27-25.31L115.27-25.31Q115.31-25 115.59-24.73Q115.86-24.45 115.98-24.38L115.98-24.38Q116.09-24.10 116.13-24.08Q116.17-24.06 116.21-24.02L116.21-24.02Q116.29-23.91 116.25-23.77Q116.21-23.63 116.33-23.55L116.33-23.55Q116.33-23.44 116.37-23.34Q116.41-23.24 116.41-23.13L116.41-23.13Q116.60-22.81 116.60-22.62L116.60-22.62Q116.68-22.30 116.76-22.15Q116.84-21.99 116.91-21.88L116.91-21.88Q116.88-21.76 116.91-21.62Q116.95-21.48 116.95-21.33L116.95-21.33Q116.76-20.74 116.82-20.51Q116.88-20.27 116.84-20.04L116.84-20.04L116.76-18.95Q116.68-18.59 116.64-18.52Q116.60-18.44 116.68-18.36L116.68-18.36Q116.52-18.28 116.52-18.07Q116.52-17.85 116.45-17.73L116.45-17.73Q116.25-17.46 116.21-17.32Q116.17-17.19 116.05-17.07L116.05-17.07Q116.05-16.88 116.00-16.70Q115.94-16.52 115.94-16.33L115.94-16.33Q115.63-15.98 115.66-15.94Q115.70-15.90 115.70-15.82L115.70-15.82Q115.55-15.74 115.41-15.55Q115.27-15.35 115.20-15.23L115.20-15.23Q115-14.80 114.96-14.71Q114.92-14.61 114.92-14.49L114.92-14.49Q114.61-13.98 114.38-13.73Q114.14-13.48 114.06-13.13L114.06-13.13Q113.87-13.13 113.81-12.97Q113.75-12.81 113.55-12.77L113.55-12.77Q113.40-12.46 113.28-12.30L113.28-12.30Q112.89-12.23 112.38-11.95Q111.88-11.68 111.60-11.37L111.60-11.37Q111.52-11.29 111.31-11.27Q111.09-11.25 110.98-11.09L110.98-11.09Q111.45-10.90 111.66-10.70Q111.88-10.51 112.07-10.55L112.07-10.55Q112.42-10.16 112.56-9.96Q112.70-9.77 112.93-9.69L112.93-9.69Q113.20-9.14 113.36-9.06L113.36-9.06Q113.36-8.87 113.61-8.59Q113.87-8.32 113.95-8.24L113.95-8.24Q113.98-7.81 114.06-7.79Q114.14-7.77 114.22-7.70L114.22-7.70Q114.30-7.42 114.28-7.34Q114.26-7.27 114.26-7.19L114.26-7.19Q114.26-7.11 114.38-6.91Q114.49-6.72 114.57-6.76L114.57-6.76Q114.53-6.45 114.73-6.23Q114.92-6.02 114.96-5.70L114.96-5.70Q115-5.47 114.90-5.20Q114.80-4.92 115-4.73L115-4.73Q115-4.34 115.20-4.18L115.20-4.18Q115.08-3.98 115.10-3.91Q115.12-3.83 115.20-3.67L115.20-3.67Q115.23-3.52 115.14-3.48Q115.04-3.44 115-3.32L115-3.32Q115.08-3.13 115.02-2.93Q114.96-2.73 115-2.54L115-2.54Q114.84-2.19 114.94-2.13Q115.04-2.07 115-1.95L115-1.95Q115.31-1.88 115.66-1.78Q116.02-1.68 116.33-1.72L116.33-1.72Q116.72-1.84 117.13-1.84Q117.54-1.84 117.62-1.80L117.62-1.80Q117.77-1.76 117.97-1.66Q118.16-1.56 118.24-1.60L118.24-1.60Q118.32-1.48 118.57-1.21Q118.83-0.94 118.95-0.70ZM114.49-20.47L114.53-20.74Q114.53-20.94 114.51-21.31Q114.49-21.68 114.41-21.84L114.41-21.84Q114.38-22.23 114.32-22.34Q114.26-22.46 114.34-22.58L114.34-22.58Q114.22-22.81 114.28-22.87Q114.34-22.93 114.18-23.01L114.18-23.01Q113.95-23.52 113.93-23.69Q113.91-23.87 113.79-24.02L113.79-24.02Q113.44-24.22 113.34-24.28Q113.24-24.34 113.28-24.49L113.28-24.49Q113.05-24.69 112.89-24.82Q112.73-24.96 112.42-25L112.42-25Q112.15-25.16 112.09-25.29Q112.03-25.43 111.91-25.51L111.91-25.51Q111.52-25.66 111.29-25.74L111.29-25.74Q110.90-25.98 110.84-26.09Q110.78-26.21 110.66-26.29L110.66-26.29Q110.47-26.25 110.37-26.31Q110.27-26.37 110.08-26.45L110.08-26.45Q110-26.41 109.84-26.41Q109.69-26.41 109.61-26.52L109.61-26.52Q109.18-26.60 108.93-26.78Q108.67-26.95 108.40-26.84L108.40-26.84Q108.20-27.03 107.97-26.95L107.97-26.95Q107.85-27.11 107.66-27.09Q107.46-27.07 107.27-27.11L107.27-27.11Q106.76-27.34 106.50-27.32Q106.25-27.30 106.05-27.38L106.05-27.38Q105.43-27.42 105.35-27.38Q105.27-27.34 104.96-27.30L104.96-27.30Q104.57-27.50 104.10-27.36Q103.63-27.23 103.24-27.38L103.24-27.38Q103.16-27.30 103.03-27.30Q102.89-27.30 102.77-27.27L102.77-27.27Q102.34-27.30 102.19-27.34Q102.03-27.38 101.95-27.34L101.95-27.34Q101.72-27.50 101.46-27.42Q101.21-27.34 100.98-27.27L100.98-27.27Q100.55-27.46 100.29-27.36Q100.04-27.27 99.73-27.27L99.73-27.27Q99.38-27.30 99.32-27.27Q99.26-27.23 99.18-27.23L99.18-27.23Q98.98-27.19 98.79-27.23Q98.59-27.27 98.32-27.23L98.32-27.23Q97.77-27.15 97.62-27.15Q97.46-27.15 97.27-27.07L97.27-27.07Q97.27-26.95 97.27-26.54Q97.27-26.13 97.42-26.05L97.42-26.05Q97.50-25.98 97.46-25.86Q97.42-25.74 97.46-25.63L97.46-25.63Q97.50-25.55 97.60-25.21Q97.70-24.88 97.73-24.80L97.73-24.80Q97.70-24.45 97.73-24.41Q97.77-24.38 97.77-24.30L97.77-24.30Q97.81-24.18 97.81-24.04Q97.81-23.91 97.81-23.79L97.81-23.79Q98.09-23.48 98.01-23.36Q97.93-23.24 97.97-22.97L97.97-22.97Q98.09-22.62 98.03-22.32Q97.97-22.03 98.01-21.80L98.01-21.80Q98.13-21.21 98.07-20.86Q98.01-20.51 98.16-20.31L98.16-20.31Q98.16-19.73 98.16-19.43Q98.16-19.14 98.28-18.83L98.28-18.83Q98.13-18.52 98.16-18.07Q98.20-17.62 98.01-17.27L98.01-17.27Q98.05-17.19 98.09-16.99Q98.13-16.80 98.13-16.56Q98.13-16.33 98.11-16.11Q98.09-15.90 98.05-15.86L98.05-15.86Q98.13-15.74 98.14-15.61Q98.16-15.47 98.09-15.31L98.09-15.31Q98.13-14.88 98.16-14.84Q98.20-14.80 98.20-14.73L98.20-14.73Q98.20-14.61 98.16-14.51Q98.13-14.41 98.09-14.30L98.09-14.30Q98.16-13.83 98.24-13.69Q98.32-13.55 98.24-13.32L98.24-13.32Q98.28-13.16 98.22-13.07Q98.16-12.97 98.24-12.85L98.24-12.85Q98.20-12.54 98.26-12.46Q98.32-12.38 98.28-12.23L98.28-12.23Q98.59-12.03 98.87-12.01Q99.14-11.99 99.26-11.95L99.26-11.95Q99.45-11.88 99.80-11.89Q100.16-11.91 100.23-11.84L100.23-11.84Q100.47-11.84 100.55-11.80Q100.63-11.76 100.70-11.76L100.70-11.76Q101.02-12.03 101.09-11.88Q101.17-11.72 101.45-11.72L101.45-11.72Q101.64-11.84 101.89-11.80Q102.15-11.76 102.34-11.72L102.34-11.72Q102.46-11.76 102.54-11.80Q102.62-11.84 102.73-11.84L102.73-11.84Q102.93-11.88 103.11-11.80Q103.28-11.72 103.44-11.88L103.44-11.88Q103.48-11.84 103.81-11.78Q104.14-11.72 104.22-11.72L104.22-11.72Q104.77-11.84 104.92-11.78Q105.08-11.72 105.23-11.76L105.23-11.76Q105.63-11.88 105.74-11.86Q105.86-11.84 106.02-11.84L106.02-11.84Q106.48-11.95 106.88-12.15Q107.27-12.34 107.46-12.23L107.46-12.23Q107.73-12.27 108.32-12.46Q108.91-12.66 109.10-12.62L109.10-12.62Q109.30-12.77 109.45-12.83Q109.61-12.89 109.80-12.97L109.80-12.97Q109.88-13.09 109.94-13.18Q110-13.28 110.08-13.36L110.08-13.36Q110.23-13.44 110.41-13.48Q110.59-13.52 110.70-13.67L110.70-13.67Q111.29-13.79 111.46-14.02Q111.64-14.26 111.95-14.34L111.95-14.34Q111.95-14.38 112.07-14.57Q112.19-14.77 112.32-15Q112.46-15.23 112.60-15.43Q112.73-15.63 112.77-15.70L112.77-15.70Q112.97-15.86 112.97-15.94Q112.97-16.02 113.01-16.09L113.01-16.09Q113.32-16.41 113.34-16.54Q113.36-16.68 113.48-16.76L113.48-16.76Q113.55-17.07 113.59-17.13Q113.63-17.19 113.71-17.23L113.71-17.23Q113.79-17.50 113.85-17.77Q113.91-18.05 113.98-18.32L113.98-18.32Q114.06-18.48 114.12-18.59Q114.18-18.71 114.22-18.83L114.22-18.83Q114.26-18.91 114.24-19.02Q114.22-19.14 114.26-19.22L114.26-19.22Q114.30-19.30 114.34-19.41Q114.38-19.53 114.41-19.61L114.41-19.61Q114.41-19.96 114.45-19.96Q114.49-19.96 114.49-20.04L114.49-20.04Q114.45-20.39 114.47-20.39Q114.49-20.39 114.49-20.47L114.49-20.47Z M136.17-7.38L136.17-7.38Q136.02-6.99 135.90-6.84L135.90-6.84Q135.74-6.56 135.57-6.35Q135.39-6.13 135.27-5.86L135.27-5.86Q135.08-5.66 135.02-5.66Q134.96-5.66 134.88-5.59L134.88-5.59Q134.80-5.51 134.77-5.39Q134.73-5.27 134.65-5.20L134.65-5.20Q134.41-5.12 134.34-4.90Q134.26-4.69 134.02-4.65L134.02-4.65Q133.98-4.53 133.91-4.45Q133.83-4.38 133.79-4.30L133.79-4.30Q133.59-4.26 133.50-4.14Q133.40-4.02 133.28-3.95L133.28-3.95Q133.20-3.91 133.09-3.91Q132.97-3.91 132.89-3.87L132.89-3.87Q132.50-3.55 132.32-3.54Q132.15-3.52 132.07-3.36L132.07-3.36Q131.84-3.28 131.43-3.14Q131.02-3.01 130.86-2.85L130.86-2.85Q130.78-2.81 130.66-2.83Q130.55-2.85 130.43-2.81L130.43-2.81Q130.35-2.70 129.94-2.62Q129.53-2.54 129.06-2.48Q128.59-2.42 128.20-2.40Q127.81-2.38 127.77-2.46L127.77-2.46Q127.23-2.50 127.01-2.46Q126.80-2.42 126.60-2.42L126.60-2.42Q126.41-2.42 125.84-2.46Q125.27-2.50 125.12-2.54L125.12-2.54Q124.77-2.58 124.41-2.68Q124.06-2.77 123.71-2.85L123.71-2.85Q123.44-2.93 123.16-2.99Q122.89-3.05 122.70-3.24L122.70-3.24Q122.38-3.32 121.97-3.52Q121.56-3.71 121.33-3.91L121.33-3.91Q121.25-3.98 121.11-4.20Q120.98-4.41 120.90-4.49L120.90-4.49Q120.82-4.65 120.68-4.77Q120.55-4.88 120.43-5.04L120.43-5.04Q120.35-5.12 120.35-5.23Q120.35-5.35 120.27-5.43L120.27-5.43Q120.12-5.70 119.90-5.92Q119.69-6.13 119.57-6.41L119.57-6.41Q119.49-6.56 119.39-6.91Q119.30-7.27 119.26-7.42L119.26-7.42Q119.18-7.58 119.22-7.71Q119.26-7.85 119.18-7.97L119.18-7.97Q119.14-8.13 119.04-8.40Q118.95-8.67 118.87-8.75L118.87-8.75Q118.95-9.06 118.85-9.32Q118.75-9.57 118.75-9.88L118.75-9.88Q118.71-10.04 118.75-10.20Q118.79-10.35 118.79-10.55L118.79-10.55Q118.79-10.86 118.77-11.37Q118.75-11.88 118.95-12.15L118.95-12.15Q119.02-12.23 119.14-12.44Q119.26-12.66 119.34-12.81L119.34-12.81L119.53-13.20Q119.65-13.52 119.80-13.81Q119.96-14.10 120.04-14.41L120.04-14.41Q120.23-14.53 120.55-15.04Q120.86-15.55 121.05-15.74L121.05-15.74Q121.25-16.02 121.54-16.23Q121.84-16.45 122.07-16.68L122.07-16.68Q122.15-16.76 122.23-16.86Q122.30-16.95 122.38-16.99L122.38-16.99Q122.54-17.07 122.81-17.17Q123.09-17.27 123.28-17.34L123.28-17.34Q123.87-17.58 124.45-17.89Q125.04-18.20 125.70-18.36L125.70-18.36Q125.90-18.40 126.39-18.48Q126.88-18.55 127.03-18.59L127.03-18.59Q127.42-18.63 127.66-18.63Q127.89-18.63 128.32-18.71L128.32-18.71Q128.48-18.75 128.83-18.75Q129.18-18.75 129.59-18.71Q130-18.67 130.35-18.63Q130.70-18.59 130.90-18.55L130.90-18.55Q131.09-18.48 131.31-18.34Q131.52-18.20 131.72-18.20L131.72-18.20Q131.80-18.13 131.89-18.09Q131.99-18.05 132.07-17.97L132.07-17.97Q132.54-17.73 132.71-17.62Q132.89-17.50 133.09-17.46L133.09-17.46Q133.40-17.15 133.75-16.88Q134.10-16.60 134.30-16.17L134.30-16.17Q134.38-16.09 134.47-16.02Q134.57-15.94 134.65-15.86L134.65-15.86Q134.77-15.63 134.82-15.61Q134.88-15.59 134.96-15.51L134.96-15.51Q134.96-15.31 135.10-15.20Q135.23-15.08 135.20-14.84L135.20-14.84Q135.27-14.73 135.37-14.69Q135.47-14.65 135.55-14.57L135.55-14.57Q135.55-14.34 135.64-14.18Q135.74-14.02 135.90-13.87L135.90-13.87Q135.86-13.55 135.96-13.34Q136.05-13.13 136.13-12.85L136.13-12.85Q136.25-12.34 136.35-11.60Q136.45-10.86 136.48-10.08Q136.52-9.30 136.46-8.57Q136.41-7.85 136.17-7.38ZM133.91-10.63L133.91-10.63Q133.91-10.86 133.83-11.27Q133.75-11.68 133.63-12.11Q133.52-12.54 133.38-12.95Q133.24-13.36 133.13-13.59L133.13-13.59Q133.05-13.67 133.01-13.79Q132.97-13.91 132.89-13.98L132.89-13.98Q132.81-14.10 132.79-14.24Q132.77-14.38 132.70-14.45L132.70-14.45Q132.58-14.69 132.23-14.94Q131.88-15.20 131.46-15.43Q131.05-15.66 130.64-15.86Q130.23-16.05 129.96-16.13L129.96-16.13Q129.38-16.33 128.85-16.33Q128.32-16.33 127.81-16.41L127.81-16.41Q127.58-16.52 127.38-16.45L127.38-16.45Q127.11-16.37 126.72-16.39Q126.33-16.41 126.13-16.33L126.13-16.33Q126.02-16.25 125.64-16.05Q125.27-15.86 124.84-15.66Q124.41-15.47 124.06-15.29Q123.71-15.12 123.63-15.12L123.63-15.12Q123.40-14.77 122.89-14.28Q122.38-13.79 122.30-13.36L122.30-13.36Q121.88-13.13 121.88-12.95Q121.88-12.77 121.80-12.66L121.80-12.66Q121.56-12.42 121.48-12.13Q121.41-11.84 121.29-11.56L121.29-11.56Q121.21-11.41 121.11-11.33Q121.02-11.25 121.02-11.09L121.02-11.09Q120.94-10.70 120.82-10.59L120.82-10.59Q120.86-10.23 120.84-9.96Q120.82-9.69 120.82-9.45Q120.82-9.22 120.88-8.96Q120.94-8.71 121.05-8.32L121.05-8.32Q121.21-8.16 121.17-8.07Q121.13-7.97 121.17-7.89L121.17-7.89Q121.21-7.81 121.27-7.70Q121.33-7.58 121.37-7.50L121.37-7.50Q121.45-7.30 121.46-7.07Q121.48-6.84 121.56-6.64L121.56-6.64Q121.68-6.48 121.74-6.39Q121.80-6.29 121.80-6.17L121.80-6.17Q121.99-6.09 122.15-5.78Q122.30-5.47 122.62-5.35L122.62-5.35Q122.89-5.12 123.13-5.04Q123.36-4.96 123.59-4.80L123.59-4.80Q123.83-4.73 124.08-4.77Q124.34-4.80 124.61-4.73L124.61-4.73Q124.69-4.73 124.84-4.67Q125-4.61 125.08-4.61L125.08-4.61Q125.59-4.57 126.21-4.59Q126.84-4.61 127.50-4.63Q128.16-4.65 128.75-4.71Q129.34-4.77 129.53-4.80L129.53-4.80L129.96-4.92Q130.16-5 130.33-5.14Q130.51-5.27 130.70-5.23L130.70-5.23Q130.82-5.35 130.94-5.37Q131.05-5.39 131.17-5.47L131.17-5.47Q131.29-5.55 131.39-5.61Q131.48-5.66 131.60-5.74L131.60-5.74Q132.03-6.02 132.36-6.23Q132.70-6.45 132.97-6.88L132.97-6.88Q133.24-7.27 133.36-7.52Q133.48-7.77 133.57-8.05Q133.67-8.32 133.77-8.57Q133.87-8.83 133.87-8.95L133.87-8.95Q133.91-9.18 133.87-9.41Q133.83-9.65 133.83-9.88L133.83-9.88Q133.83-10.08 133.87-10.25Q133.91-10.43 133.91-10.63Z M155.12-16.33L155.12-16.33Q155.20-16.09 155.12-15.78Q155.04-15.47 154.96-15.23L154.96-15.23Q154.80-15.16 154.71-15.04Q154.61-14.92 154.53-14.80L154.53-14.80Q154.22-14.69 153.95-14.38L153.95-14.38Q153.71-14.34 153.40-14.10L153.40-14.10Q152.97-13.98 152.77-13.91L152.77-13.91Q152.58-13.83 152.42-13.81Q152.27-13.79 152.07-13.71L152.07-13.71Q151.68-13.52 151.46-13.52Q151.25-13.52 151.13-13.32L151.13-13.32Q150.82-13.28 150.41-13.09Q150-12.89 149.80-12.93L149.80-12.93Q149.69-12.97 149.55-13.05Q149.41-13.13 149.34-13.20L149.34-13.20Q149.26-13.28 149.08-13.32Q148.91-13.36 148.83-13.44L148.83-13.44Q148.67-13.75 148.69-13.75Q148.71-13.75 148.75-13.83L148.75-13.83Q148.55-14.22 148.65-14.36Q148.75-14.49 148.79-14.57L148.79-14.57Q149.18-14.80 149.32-14.84Q149.45-14.88 149.53-15.08L149.53-15.08Q149.77-15.08 149.98-15.18Q150.20-15.27 150.39-15.39L150.39-15.39Q150.39-15.55 150.27-15.55Q150.16-15.55 150.08-15.63L150.08-15.63Q150.08-16.02 149.98-16.00Q149.88-15.98 149.77-16.21L149.77-16.21Q149.45-16.29 149.04-16.50Q148.63-16.72 148.40-16.91L148.40-16.91Q148.09-16.88 147.66-17.11L147.66-17.11Q147.38-17.03 147.11-17.11L147.11-17.11Q146.88-16.99 146.60-16.97Q146.33-16.95 146.09-16.76L146.09-16.76Q145.78-16.84 145.39-16.60L145.39-16.60Q145.12-16.60 145.02-16.56Q144.92-16.52 144.69-16.41L144.69-16.41Q144.22-16.25 144.02-16.07Q143.83-15.90 143.59-15.82L143.59-15.82Q143.52-15.74 143.38-15.74Q143.24-15.74 143.16-15.66L143.16-15.66Q142.85-15.43 142.66-15.18Q142.46-14.92 142.38-14.73L142.38-14.73Q142.15-14.53 142.11-14.43Q142.07-14.34 142.07-14.26L142.07-14.26L141.76-13.91Q141.52-13.63 141.48-13.55Q141.45-13.48 141.45-13.40L141.45-13.40Q141.17-13.05 141.21-13.01Q141.25-12.97 141.25-12.89L141.25-12.89Q141.02-12.62 140.94-12.44Q140.86-12.27 140.84-12.09Q140.82-11.91 140.80-11.72Q140.78-11.52 140.74-11.25L140.74-11.25Q140.55-10.82 140.57-10.74Q140.59-10.66 140.59-10.59L140.59-10.59Q140.47-10.16 140.51-10.12Q140.55-10.08 140.55-10L140.55-10Q140.43-9.57 140.47-9.45Q140.51-9.34 140.55-9.22L140.55-9.22Q140.43-8.98 140.49-8.61Q140.55-8.24 140.74-8.05L140.74-8.05Q140.66-7.62 140.80-7.13Q140.94-6.64 141.13-6.33L141.13-6.33Q141.56-5.70 141.56-5.53Q141.56-5.35 141.88-4.96L141.88-4.96Q142.19-4.61 142.56-4.39Q142.93-4.18 143.36-3.95L143.36-3.95Q143.79-3.71 143.91-3.73Q144.02-3.75 144.14-3.71L144.14-3.71Q144.69-3.63 145.20-3.54Q145.70-3.44 146.29-3.48L146.29-3.48Q146.48-3.52 146.62-3.55Q146.76-3.59 146.95-3.63L146.95-3.63Q147.15-3.63 147.29-3.61Q147.42-3.59 147.58-3.63L147.58-3.63Q147.70-3.63 147.79-3.69Q147.89-3.75 148.01-3.79L148.01-3.79Q148.36-3.79 148.44-3.83Q148.52-3.87 148.59-3.91L148.59-3.91Q148.67-3.95 148.79-3.93Q148.91-3.91 149.02-3.95L149.02-3.95Q149.22-4.02 149.41-4.16Q149.61-4.30 149.84-4.38L149.84-4.38Q150.43-4.77 151.02-5.06Q151.60-5.35 151.80-5.98L151.80-5.98Q152.19-6.17 152.58-6.31Q152.97-6.45 153.32-6.72L153.32-6.72Q153.44-6.64 153.48-6.54Q153.52-6.45 153.71-6.45L153.71-6.45Q153.79-6.13 153.75-6.07Q153.71-6.02 153.71-5.94L153.71-5.94Q153.75-5.82 153.81-5.72Q153.87-5.63 153.87-5.55L153.87-5.55Q153.79-5 153.65-4.84Q153.52-4.69 153.44-4.45L153.44-4.45Q153.28-4.41 153.13-4.10L153.13-4.10Q152.93-3.98 152.81-3.81Q152.70-3.63 152.42-3.55L152.42-3.55Q152.27-3.32 152.19-3.16L152.19-3.16Q152.07-3.13 151.99-3.07Q151.91-3.01 151.80-3.05L151.80-3.05Q151.37-2.73 151.11-2.52Q150.86-2.30 150.55-2.19L150.55-2.19Q150.27-1.95 150.21-1.99Q150.16-2.03 150.08-1.95L150.08-1.95Q149.77-1.80 149.41-1.68Q149.06-1.56 148.75-1.48L148.75-1.48Q148.36-1.48 148.16-1.45L148.16-1.45Q147.54-1.29 147.15-1.33Q146.76-1.37 146.37-1.29L146.37-1.29Q146.13-1.41 145.88-1.35Q145.63-1.29 145.39-1.45L145.39-1.45Q145-1.45 144.94-1.46Q144.88-1.48 144.80-1.56L144.80-1.56Q144.77-1.52 144.36-1.50Q143.95-1.48 143.87-1.48L143.87-1.48Q143.75-1.52 143.63-1.58Q143.52-1.64 143.36-1.64L143.36-1.64Q142.73-1.72 142.58-1.86Q142.42-1.99 142.07-1.95L142.07-1.95Q141.99-1.99 141.78-2.13Q141.56-2.27 141.35-2.40Q141.13-2.54 140.96-2.66Q140.78-2.77 140.78-2.85L140.78-2.85Q140.47-2.97 140.35-3.13Q140.23-3.28 140.12-3.46Q140-3.63 139.90-3.79Q139.80-3.95 139.80-3.98L139.80-3.98Q139.57-4.22 139.41-4.22L139.41-4.22Q139.26-4.61 139.18-4.80Q139.10-5 138.91-5.08L138.91-5.08Q138.83-5.23 138.81-5.35Q138.79-5.47 138.63-5.63L138.63-5.63Q138.52-6.09 138.46-6.15Q138.40-6.21 138.44-6.41L138.44-6.41Q138.44-7.19 138.09-7.66L138.09-7.66Q138.01-7.97 138.09-8.05Q138.16-8.13 137.93-8.13L137.93-8.13Q138.09-8.20 138.03-8.32Q137.97-8.44 137.93-8.55L137.93-8.55Q137.93-8.63 137.95-8.83Q137.97-9.02 137.89-9.10L137.89-9.10Q138.05-9.30 137.95-9.67Q137.85-10.04 138.13-10.23L138.13-10.23Q138.05-10.55 138.18-10.86Q138.32-11.17 138.24-11.48L138.24-11.48Q138.36-11.60 138.34-11.80Q138.32-11.99 138.40-12.15L138.40-12.15Q138.59-12.38 138.57-12.48Q138.55-12.58 138.63-12.58L138.63-12.58Q138.63-12.77 138.69-12.91Q138.75-13.05 138.75-13.24L138.75-13.24Q138.95-13.40 138.96-13.59Q138.98-13.79 139.06-13.98L139.06-13.98Q139.10-14.14 139.30-14.39Q139.49-14.65 139.69-14.92Q139.88-15.20 140.10-15.43Q140.31-15.66 140.43-15.74L140.43-15.74Q140.63-16.17 140.78-16.35Q140.94-16.52 141.02-16.76L141.02-16.76Q141.21-16.88 141.31-16.91Q141.41-16.95 141.45-17.23L141.45-17.23Q141.68-17.34 141.82-17.54Q141.95-17.73 142.15-17.89L142.15-17.89Q142.46-17.93 142.75-18.14Q143.05-18.36 143.09-18.44L143.09-18.44Q143.28-18.48 143.52-18.55Q143.75-18.63 143.95-18.71L143.95-18.71Q144.30-18.95 144.41-18.93Q144.53-18.91 144.65-18.91L144.65-18.91Q144.84-18.95 145.06-19.06Q145.27-19.18 145.51-19.14L145.51-19.14Q145.90-19.02 146.07-19.04Q146.25-19.06 146.41-19.10L146.41-19.10Q146.88-19.06 146.93-19.10Q146.99-19.14 147.30-19.22L147.30-19.22Q147.50-19.18 147.68-19.14Q147.85-19.10 148.05-19.06L148.05-19.06Q148.75-18.83 149.26-18.75Q149.77-18.67 150.20-18.36L150.20-18.36Q150.27-18.28 150.37-18.22Q150.47-18.16 150.59-18.16L150.59-18.16Q151.02-17.73 151.52-17.50L151.52-17.50Q151.60-17.46 151.78-17.23Q151.95-16.99 152.07-16.91L152.07-16.91Q152.11-16.48 152.19-16.41Q152.27-16.33 152.34-16.21L152.34-16.21Q152.50-16.29 152.66-16.33Q152.81-16.37 152.93-16.45L152.93-16.45Q153.05-16.52 153.14-16.64Q153.24-16.76 153.36-16.84L153.36-16.84Q153.83-16.72 154.30-16.91L154.30-16.91Q154.41-16.84 154.77-16.76L154.77-16.76Q154.92-16.45 155-16.43Q155.08-16.41 155.12-16.33Z M176.68-3.91L176.68-3.91Q176.37-3.55 176.31-3.40Q176.25-3.24 176.05-3.24L176.05-3.24Q175.94-2.97 175.64-2.81Q175.35-2.66 175.16-2.42L175.16-2.42Q174.92-2.50 174.59-2.30Q174.26-2.11 174.06-1.99L174.06-1.99Q173.87-1.91 173.61-1.86Q173.36-1.80 173.16-1.68L173.16-1.68Q173.05-1.60 172.89-1.60Q172.73-1.60 172.58-1.56L172.58-1.56Q172.38-1.48 172.17-1.39Q171.95-1.29 171.76-1.21L171.76-1.21Q171.64-1.17 171.56-1.11Q171.48-1.05 171.37-0.98L171.37-0.98Q170.94-0.78 170.90-0.78Q170.86-0.78 170.78-0.74L170.78-0.74Q170.55-0.55 170.45-0.53Q170.35-0.51 170.27-0.43L170.27-0.43Q170.16-0.43 170.08-0.39Q170-0.35 169.88-0.39L169.88-0.39Q169.77-0.27 169.61-0.21Q169.45-0.16 169.30-0.08L169.30-0.08Q169.06-0.16 168.89-0.14Q168.71-0.12 168.52-0.16L168.52-0.16Q168.13-0.47 168.13-0.63L168.13-0.63Q168.13-1.02 168.09-1.17L168.09-1.17Q168.32-1.45 168.42-1.54Q168.52-1.64 168.48-1.84L168.48-1.84Q168.55-1.91 168.85-2.13Q169.14-2.34 169.14-2.42L169.14-2.42Q169.41-2.50 169.84-2.66Q170.27-2.81 170.47-3.05L170.47-3.05Q170.31-3.36 170-3.54Q169.69-3.71 169.61-4.10L169.61-4.10Q169.53-4.18 169.43-4.24Q169.34-4.30 169.26-4.34L169.26-4.34Q169.14-4.57 168.79-4.80L168.79-4.80Q168.40-5.31 168.18-5.51Q167.97-5.70 167.81-5.98L167.81-5.98Q167.62-6.05 167.42-6.17Q167.23-6.29 167.23-6.48L167.23-6.48Q166.95-6.80 166.86-6.88Q166.76-6.95 166.60-7.07L166.60-7.07Q166.56-7.11 166.41-7.27Q166.25-7.42 166.09-7.60Q165.94-7.77 165.80-7.93Q165.66-8.09 165.63-8.16L165.63-8.16Q165.43-8.20 165.25-8.48Q165.08-8.75 164.84-8.83L164.84-8.83Q164.77-9.02 164.61-9.20Q164.45-9.38 164.38-9.61L164.38-9.61Q164.14-9.84 164.06-10.06Q163.98-10.27 163.79-10.47L163.79-10.47Q163.79-10.66 163.71-10.80Q163.63-10.94 163.59-11.13L163.59-11.13Q163.52-11.13 163.28-11.02Q163.05-10.90 163.01-10.86L163.01-10.86Q162.66-10.59 162.46-10.63L162.46-10.63Q162.30-10.55 162.17-10.41Q162.03-10.27 161.88-10.20L161.88-10.20Q161.29-9.80 160.92-9.53Q160.55-9.26 160.16-9.14L160.16-9.14Q160.23-8.83 160.18-8.44Q160.12-8.05 160.31-7.85L160.31-7.85Q160.23-7.54 160.21-7.42Q160.20-7.30 160.21-7.25Q160.23-7.19 160.23-7.11Q160.23-7.03 160.23-6.84L160.23-6.84Q160.12-6.29 160.18-6.13Q160.23-5.98 160.23-5.82L160.23-5.82Q160.20-5.55 160.23-5.53Q160.27-5.51 160.27-5.43L160.27-5.43Q160.27-5.12 160.21-4.79Q160.16-4.45 160.23-4.14L160.23-4.14Q160.35-3.63 160.35-3.46Q160.35-3.28 160.31-2.73L160.31-2.73Q160.47-2.30 160.43-2.19Q160.39-2.07 160.39-1.95L160.39-1.95Q160.74-1.95 160.96-1.89Q161.17-1.84 161.41-1.80Q161.64-1.76 161.86-1.74Q162.07-1.72 162.15-1.72L162.15-1.72Q162.27-1.72 162.32-1.64Q162.38-1.56 162.46-1.48L162.46-1.48Q162.62-1.56 162.68-1.46Q162.73-1.37 162.85-1.37L162.85-1.37Q162.97-1.05 163.24-0.82L163.24-0.82Q163.16-0.70 163.20-0.63Q163.24-0.55 163.24-0.43L163.24-0.43Q163.20-0.27 163.11-0.18Q163.01-0.08 162.97 0.08L162.97 0.08Q162.81 0.16 162.68 0.21Q162.54 0.27 162.38 0.35L162.38 0.35Q161.48 0.78 160.82 0.78L160.82 0.78Q160.63 0.74 160.43 0.68Q160.23 0.63 160.04 0.63L160.04 0.63Q159.84 0.63 159.63 0.64Q159.41 0.66 159.22 0.59L159.22 0.59Q159.14 0.66 158.96 0.63Q158.79 0.59 158.75 0.70L158.75 0.70Q158.36 0.63 157.99 0.72Q157.62 0.82 157.27 0.78L157.27 0.78Q157.07 0.74 156.88 0.64Q156.68 0.55 156.48 0.55L156.48 0.55Q156.45 0.47 156.27 0.29Q156.09 0.12 156.02 0.12L156.02 0.12Q155.94-0.16 155.96-0.39Q155.98-0.63 156.05-0.90L156.05-0.90Q156.37-0.90 156.41-1.11Q156.45-1.33 156.60-1.48L156.60-1.48Q156.95-1.56 157.32-1.60Q157.70-1.64 158.05-1.64L158.05-1.64Q158.13-2.03 158.18-2.50Q158.24-2.97 158.05-3.32L158.05-3.32Q158.09-3.52 158.14-3.73Q158.20-3.95 158.20-4.14L158.20-4.14Q158.20-4.30 158.14-4.43Q158.09-4.57 158.09-4.73L158.09-4.73Q158.09-4.88 158.11-5Q158.13-5.12 158.13-5.23L158.13-5.23Q158.09-5.70 158.14-5.84Q158.20-5.98 158.05-6.09L158.05-6.09Q158.13-6.41 158.13-6.74Q158.13-7.07 158.05-7.38L158.05-7.38Q158.09-7.50 158.11-7.85Q158.13-8.20 158.13-8.63Q158.13-9.06 158.11-9.41Q158.09-9.77 158.05-9.88L158.05-9.88Q158.13-10.27 158.14-10.41Q158.16-10.55 158.09-10.63L158.09-10.63Q158.28-11.13 158.22-11.86Q158.16-12.58 158.20-13.13L158.20-13.13Q158.24-13.40 158.18-13.50Q158.13-13.59 158.13-13.67L158.13-13.67Q158.13-13.87 158.18-14.06Q158.24-14.26 158.24-14.45L158.24-14.45Q158.20-14.73 158.22-14.75Q158.24-14.77 158.24-14.84L158.24-14.84Q158.28-15.23 158.26-15.29Q158.24-15.35 158.24-15.43L158.24-15.43Q158.20-15.66 158.26-16.09Q158.32-16.52 158.13-16.72L158.13-16.72Q158.20-17.27 158.09-17.50Q157.97-17.73 157.85-18.16L157.85-18.16Q157.81-18.32 157.83-18.44Q157.85-18.55 157.85-18.71L157.85-18.71Q157.85-18.91 157.81-19.08Q157.77-19.26 157.77-19.45L157.77-19.45Q157.77-19.61 157.83-19.71Q157.89-19.80 157.85-19.96L157.85-19.96Q157.85-20.04 157.91-20.47Q157.97-20.90 158.01-21.41Q158.05-21.91 158.05-22.36Q158.05-22.81 158.05-22.93L158.05-22.93Q157.89-23.09 157.66-23.03Q157.42-22.97 157.27-22.93L157.27-22.93Q157.11-23.01 156.97-23.05Q156.84-23.09 156.64-23.13L156.64-23.13Q156.21-23.05 156.05-23.11Q155.90-23.16 155.70-23.16L155.70-23.16Q155.51-23.16 155.41-23.14Q155.31-23.13 155.23-23.32L155.23-23.32Q154.96-23.63 155-23.79Q155.04-23.95 154.96-24.14L154.96-24.14Q155.27-24.53 155.29-24.67Q155.31-24.80 155.35-24.92L155.35-24.92Q155.86-25.23 156.25-25.25Q156.64-25.27 156.84-25.39L156.84-25.39Q156.99-25.31 157.09-25.25Q157.19-25.20 157.34-25.20L157.34-25.20Q157.54-25.20 157.77-25.31Q158.01-25.43 158.20-25.27L158.20-25.27Q158.52-25.47 158.57-25.37Q158.63-25.27 158.75-25.27L158.75-25.27Q159.06-25.39 159.12-25.37Q159.18-25.35 159.26-25.39L159.26-25.39Q159.53-25.43 159.67-25.39Q159.80-25.35 159.96-25.35L159.96-25.35Q160.39-25.43 160.43-25.41Q160.47-25.39 160.55-25.39L160.55-25.39Q161.17-25.43 161.39-25.43Q161.60-25.43 161.84-25.35L161.84-25.35Q162.23-25.20 162.42-25.04Q162.62-24.88 162.77-24.73L162.77-24.73Q162.77-24.41 162.99-24.20Q163.20-23.98 163.05-23.59L163.05-23.59Q162.66-23.40 162.70-23.36Q162.73-23.32 162.66-23.24L162.66-23.24Q162.46-23.28 162.30-23.13Q162.15-22.97 162.03-22.85L162.03-22.85Q161.88-22.89 161.76-22.83Q161.64-22.77 161.52-22.81L161.52-22.81Q160.94-22.93 160.66-22.91Q160.39-22.89 160.12-22.97L160.12-22.97Q160-22.89 159.96-22.60Q159.92-22.30 159.92-21.95Q159.92-21.60 159.92-21.25Q159.92-20.90 159.88-20.74L159.88-20.74Q159.80-20.31 159.82-20.18Q159.84-20.04 159.84-19.92L159.84-19.92Q159.84-19.80 159.80-19.71Q159.77-19.61 159.77-19.49L159.77-19.49Q159.69-19.06 160-18.83L160-18.83Q159.92-18.63 160-18.40Q160.08-18.16 160.16-17.97L160.16-17.97Q160.08-17.81 160.16-17.68Q160.23-17.54 160.23-17.38L160.23-17.38Q160.20-17.03 160.25-16.91Q160.31-16.80 160.31-16.68L160.31-16.68Q160.27-16.09 160.29-15.84Q160.31-15.59 160.31-15.39L160.31-15.39Q160.31-15.23 160.27-15.12Q160.23-15 160.23-14.84L160.23-14.84Q160.20-14.57 160.23-14.34Q160.27-14.10 160.23-13.75L160.23-13.75Q160.27-13.20 160.25-13.07Q160.23-12.93 160.27-12.73L160.27-12.73Q160.31-12.54 160.35-12.38Q160.39-12.23 160.35-11.99L160.35-11.99Q160.43-11.99 160.61-12.07Q160.78-12.15 160.82-12.23L160.82-12.23Q161.09-12.30 161.21-12.42Q161.33-12.54 161.48-12.62L161.48-12.62Q161.56-12.70 161.64-12.66Q161.72-12.62 161.84-12.81L161.84-12.81Q162.11-12.81 162.29-12.93Q162.46-13.05 162.46-13.13L162.46-13.13Q162.54-13.13 162.71-13.20Q162.89-13.28 163.09-13.40Q163.28-13.52 163.42-13.63Q163.55-13.75 163.55-13.83L163.55-13.83Q163.63-13.83 163.89-13.95Q164.14-14.06 164.41-14.22Q164.69-14.38 164.90-14.51Q165.12-14.65 165.12-14.69L165.12-14.69Q165.23-14.73 165.53-14.88Q165.82-15.04 165.90-15.12L165.90-15.12L166.21-15.39Q166.68-15.66 166.72-15.74L166.72-15.74Q166.91-15.74 167.01-15.86Q167.11-15.98 167.27-16.05L167.27-16.05Q167.58-16.25 167.66-16.25Q167.73-16.25 167.77-16.33L167.77-16.33Q167.73-16.33 167.48-16.33Q167.23-16.33 166.91-16.33Q166.60-16.33 166.31-16.33Q166.02-16.33 165.98-16.33L165.98-16.33Q165.86-16.45 165.61-16.43Q165.35-16.41 165.23-16.41L165.23-16.41Q165.12-16.41 165.06-16.48Q165-16.56 164.88-16.60L164.88-16.60Q164.69-16.64 164.38-16.66Q164.06-16.68 163.91-16.91L163.91-16.91Q163.91-17.11 164.00-17.21Q164.10-17.30 164.06-17.50L164.06-17.50Q164.26-17.77 164.30-17.83Q164.34-17.89 164.34-17.97L164.34-17.97Q164.53-18.09 164.67-18.22Q164.80-18.36 165-18.48L165-18.48Q165.39-18.44 165.55-18.50Q165.70-18.55 166.02-18.59L166.02-18.59Q166.17-18.59 166.29-18.57Q166.41-18.55 166.56-18.55L166.56-18.55Q166.95-18.59 167.05-18.55Q167.15-18.52 167.23-18.55L167.23-18.55Q167.30-18.55 167.40-18.61Q167.50-18.67 167.62-18.67L167.62-18.67Q167.81-18.71 167.89-18.71Q167.97-18.71 168.05-18.71L168.05-18.71Q168.13-18.75 168.20-18.79Q168.28-18.83 168.48-18.91L168.48-18.91Q168.75-18.83 168.98-18.77Q169.22-18.71 169.53-18.71L169.53-18.71Q169.84-18.67 170.08-18.75Q170.31-18.83 170.55-18.63L170.55-18.63Q170.63-18.63 170.90-18.65Q171.17-18.67 171.46-18.67Q171.76-18.67 171.99-18.67Q172.23-18.67 172.27-18.63L172.27-18.63Q172.50-18.79 172.97-18.77Q173.44-18.75 173.67-18.67L173.67-18.67Q174.14-18.40 174.34-18.24L174.34-18.24Q174.73-17.58 174.75-17.40Q174.77-17.23 174.69-17.11Q174.61-16.99 174.49-16.91Q174.38-16.84 174.34-16.68L174.34-16.68Q174.06-16.68 173.93-16.56Q173.79-16.45 173.59-16.33L173.59-16.33Q173.28-16.29 172.93-16.27Q172.58-16.25 172.27-16.25L172.27-16.25Q171.95-16.09 171.56-16.17Q171.17-16.25 171.13-16.21L171.13-16.21Q171.05-16.17 170.98-16.09Q170.90-16.02 170.82-15.94L170.82-15.94Q170.74-15.86 170.70-15.78Q170.66-15.70 170.59-15.63L170.59-15.63Q170.12-15.27 169.90-15.10Q169.69-14.92 169.49-14.73L169.49-14.73Q169.30-14.69 169.20-14.57Q169.10-14.45 168.91-14.41L168.91-14.41Q168.44-13.98 168.07-13.87Q167.70-13.75 167.46-13.44L167.46-13.44Q167.34-13.44 167.25-13.40Q167.15-13.36 167.07-13.32L167.07-13.32Q166.76-12.89 166.31-12.73Q165.86-12.58 165.55-12.23L165.55-12.23Q165.82-11.64 165.98-11.60L165.98-11.60Q165.98-11.48 166.09-11.23Q166.21-10.98 166.35-10.72Q166.48-10.47 166.64-10.27Q166.80-10.08 166.91-10.08L166.91-10.08Q166.99-9.92 167.23-9.71Q167.46-9.49 167.58-9.41L167.58-9.41Q167.85-9.26 168.01-9.10Q168.16-8.95 168.40-8.87L168.40-8.87Q168.36-8.67 168.48-8.63Q168.59-8.59 168.59-8.44L168.59-8.44Q168.91-8.13 169.12-8.01Q169.34-7.89 169.53-7.70L169.53-7.70Q169.57-7.50 169.75-7.40Q169.92-7.30 170-7.11L170-7.11Q170.16-7.03 170.31-6.97Q170.47-6.91 170.55-6.72L170.55-6.72Q170.94-6.48 171.05-6.27Q171.17-6.05 171.37-6.09L171.37-6.09Q171.41-5.90 171.52-5.84Q171.64-5.78 171.80-5.70L171.80-5.70Q172.19-5.27 172.34-4.94Q172.50-4.61 172.81-4.49L172.81-4.49L172.97-4.10Q173.16-4.14 173.38-4.20Q173.59-4.26 173.75-4.45L173.75-4.45Q173.79-4.45 173.98-4.53Q174.18-4.61 174.39-4.73Q174.61-4.84 174.79-4.94Q174.96-5.04 175.04-5.12L175.04-5.12Q175.35-5.20 175.66-5.10Q175.98-5 176.29-4.88L176.29-4.88Q176.48-4.69 176.48-4.39Q176.48-4.10 176.68-3.91Z M193.01-18.67L193.01-18.67Q192.93-18.52 192.87-18.44Q192.81-18.36 192.85-18.16L192.85-18.16Q192.66-18.09 192.56-17.91Q192.46-17.73 192.30-17.58L192.30-17.58Q192.34-17.46 192.32-17.38Q192.30-17.30 192.30-17.19L192.30-17.19Q192.19-17.11 192.09-17.03Q191.99-16.95 191.84-16.88L191.84-16.88Q191.45-16.76 191.41-16.60Q191.37-16.45 191.29-16.37L191.29-16.37Q191.21-16.29 191.07-16.23Q190.94-16.17 190.82-16.09L190.82-16.09Q190.74-16.02 190.66-15.92Q190.59-15.82 190.47-15.82L190.47-15.82Q190.39-15.59 190.35-15.55Q190.31-15.51 190.23-15.47L190.23-15.47Q190.16-15.31 190.04-15.16Q189.92-15 189.73-14.92L189.73-14.92Q189.69-14.80 189.65-14.71Q189.61-14.61 189.61-14.45L189.61-14.45Q189.49-14.41 189.18-14.20Q188.87-13.98 188.75-13.91L188.75-13.91Q188.55-14.06 188.28-13.98Q188.01-13.91 187.77-14.02L187.77-14.02Q187.70-14.10 187.58-14.47Q187.46-14.84 187.46-14.92L187.46-14.92Q187.50-15.27 187.46-15.31Q187.42-15.35 187.46-15.43L187.46-15.43Q187.50-15.63 187.64-15.72Q187.77-15.82 187.97-15.90L187.97-15.90Q188.05-16.17 188.18-16.39Q188.32-16.60 188.48-16.84L188.48-16.84Q188.36-16.99 188.18-17.09Q188.01-17.19 187.97-17.38L187.97-17.38Q187.77-17.46 187.46-17.70L187.46-17.70Q187.11-17.81 186.95-17.81Q186.80-17.81 186.76-17.93L186.76-17.93Q186.45-18.05 186.31-18.09Q186.17-18.13 186.09-18.16L186.09-18.16Q186.02-18.28 185.80-18.30Q185.59-18.32 185.35-18.36Q185.12-18.40 184.92-18.42Q184.73-18.44 184.69-18.44L184.69-18.44Q184.53-18.44 184.41-18.40Q184.30-18.36 184.18-18.36L184.18-18.36Q184.02-18.36 183.89-18.38Q183.75-18.40 183.59-18.36L183.59-18.36Q183.48-18.32 183.38-18.26Q183.28-18.20 183.13-18.16L183.13-18.16Q182.66-18.09 182.56-18.03Q182.46-17.97 182.34-17.89L182.34-17.89Q181.88-17.62 181.50-17.38Q181.13-17.15 180.78-16.72L180.78-16.72Q180.47-16.37 180.33-15.76Q180.20-15.16 180.12-14.69L180.12-14.69Q180.12-14.41 180.14-14.14Q180.16-13.87 180.31-13.63L180.31-13.63Q180.47-13.44 180.68-13.30Q180.90-13.16 181.09-12.97L181.09-12.97Q181.25-12.85 181.43-12.73Q181.60-12.62 181.80-12.66L181.80-12.66Q182.62-12.42 183.18-12.25Q183.75-12.07 184.34-12.03L184.34-12.03Q184.61-11.72 185.02-11.72Q185.43-11.72 185.70-11.64L185.70-11.64Q185.82-11.60 185.90-11.52Q185.98-11.45 186.09-11.37L186.09-11.37Q186.41-11.21 186.84-11.13Q187.27-11.05 187.54-10.86L187.54-10.86Q187.73-10.98 187.91-10.88Q188.09-10.78 188.28-10.82L188.28-10.82Q188.63-10.59 188.75-10.55Q188.87-10.51 188.98-10.55L188.98-10.55Q189.10-10.27 189.39-10.20Q189.69-10.12 189.77-9.80L189.77-9.80Q189.92-9.77 190.06-9.71Q190.20-9.65 190.35-9.61L190.35-9.61Q190.43-9.53 190.51-9.43Q190.59-9.34 190.74-9.30L190.74-9.30Q190.86-9.02 190.98-8.98Q191.09-8.95 191.13-8.83L191.13-8.83Q191.21-8.36 191.33-8.30Q191.45-8.24 191.52-8.16L191.52-8.16Q191.68-7.73 191.66-7.56Q191.64-7.38 191.80-7.30L191.80-7.30Q191.72-6.99 191.76-6.70Q191.80-6.41 191.76-6.09L191.76-6.09Q191.60-5.35 191.62-5.25Q191.64-5.16 191.33-4.80L191.33-4.80Q191.37-4.61 191.27-4.53Q191.17-4.45 191.21-4.30L191.21-4.30Q190.98-4.22 190.88-4.00Q190.78-3.79 190.51-3.71L190.51-3.71Q190.43-3.63 190.39-3.52Q190.35-3.40 190.27-3.32L190.27-3.32Q190.04-3.28 189.73-3.05Q189.41-2.81 189.26-2.66L189.26-2.66Q188.91-2.58 188.75-2.38L188.75-2.38Q188.55-2.42 188.48-2.34Q188.40-2.27 188.28-2.19L188.28-2.19Q188.13-2.19 187.60-1.99Q187.07-1.80 187.03-1.64L187.03-1.64Q186.76-1.72 186.70-1.62Q186.64-1.52 186.56-1.52L186.56-1.52Q186.05-1.48 185.88-1.41Q185.70-1.33 185.51-1.33L185.51-1.33Q185.39-1.33 185.08-1.31Q184.77-1.29 184.41-1.29Q184.06-1.29 183.75-1.29Q183.44-1.29 183.32-1.29L183.32-1.29Q183.13-1.29 182.95-1.39Q182.77-1.48 182.58-1.37L182.58-1.37Q182.54-1.60 182.27-1.68Q181.99-1.76 181.80-1.68L181.80-1.68Q181.45-1.88 181.15-1.99Q180.86-2.11 180.55-2.30Q180.23-2.50 179.96-2.70Q179.69-2.89 179.61-3.01L179.61-3.01Q179.30-3.13 179.26-3.16Q179.22-3.20 179.22-3.28L179.22-3.28Q179.02-3.32 178.87-3.50Q178.71-3.67 178.57-3.83Q178.44-3.98 178.26-4.02Q178.09-4.06 177.93-3.87L177.93-3.87Q177.73-3.67 177.62-3.50Q177.50-3.32 177.46-3.09L177.46-3.09Q177.15-3.09 177.03-2.93L177.03-2.93Q176.76-2.93 176.45-2.77L176.45-2.77Q176.25-2.85 176.02-2.83Q175.78-2.81 175.59-2.89L175.59-2.89Q175.55-2.97 175.51-3.09Q175.47-3.20 175.35-3.28L175.35-3.28Q175.27-3.71 175.29-3.93Q175.31-4.14 175.35-4.26L175.35-4.26Q175.66-4.49 175.80-4.59Q175.94-4.69 176.05-4.84L176.05-4.84Q176.13-4.92 176.17-5.10Q176.21-5.27 176.48-5.35L176.48-5.35Q176.91-5.90 177.11-6.15Q177.30-6.41 177.46-6.72L177.46-6.72Q177.85-7.07 178.09-7.30L178.09-7.30Q178.24-7.46 178.30-7.50Q178.36-7.54 178.44-7.62L178.44-7.62Q178.75-7.89 178.89-7.99Q179.02-8.09 179.10-8.20L179.10-8.20Q179.88-8.16 180.23-7.99Q180.59-7.81 180.74-7.34L180.74-7.34Q180.70-7.19 180.63-7.13Q180.55-7.07 180.59-6.88L180.59-6.88Q180.31-6.60 180.31-6.29L180.31-6.29Q179.92-5.94 179.90-5.88Q179.88-5.82 179.90-5.76Q179.92-5.70 180.02-5.64Q180.12-5.59 180.20-5.47L180.20-5.47Q180.23-5.27 180.39-5.10Q180.55-4.92 180.59-4.69L180.59-4.69Q180.74-4.65 180.86-4.57Q180.98-4.49 181.13-4.41L181.13-4.41Q181.29-4.22 181.41-4.20Q181.52-4.18 181.52-4.06L181.52-4.06Q181.88-3.87 182.03-3.81Q182.19-3.75 182.27-3.63L182.27-3.63Q182.62-3.71 182.81-3.52L182.81-3.52Q182.85-3.52 183.07-3.50Q183.28-3.48 183.54-3.46Q183.79-3.44 184.04-3.42Q184.30-3.40 184.38-3.40L184.38-3.40Q184.53-3.40 184.75-3.50Q184.96-3.59 185.04-3.52L185.04-3.52Q185.20-3.48 185.51-3.54Q185.82-3.59 185.94-3.67L185.94-3.67Q186.48-3.67 186.58-3.71Q186.68-3.75 186.95-3.79L186.95-3.79Q187.42-3.95 187.64-4.14Q187.85-4.34 188.05-4.41L188.05-4.41Q188.13-4.49 188.20-4.57Q188.28-4.65 188.36-4.77L188.36-4.77Q188.59-4.73 188.69-4.88Q188.79-5.04 188.98-5.08L188.98-5.08Q189.02-5.27 189.08-5.45Q189.14-5.63 189.30-5.70L189.30-5.70Q189.26-5.98 189.39-6.19Q189.53-6.41 189.53-6.64L189.53-6.64Q189.53-6.84 189.45-7.01Q189.38-7.19 189.30-7.38L189.30-7.38Q189.14-7.66 189.02-7.71Q188.91-7.77 188.95-7.93L188.95-7.93Q188.63-8.20 188.57-8.24Q188.52-8.28 188.48-8.36L188.48-8.36Q188.28-8.36 188.20-8.38Q188.13-8.40 188.09-8.42Q188.05-8.44 188.01-8.48Q187.97-8.52 187.85-8.59L187.85-8.59Q187.42-8.67 187.40-8.71Q187.38-8.75 187.30-8.79L187.30-8.79Q187.23-8.83 187.11-8.81Q186.99-8.79 186.88-8.83L186.88-8.83Q186.17-9.06 185.78-9.08Q185.39-9.10 185-9.18L185-9.18Q184.69-9.26 184.38-9.39Q184.06-9.53 183.75-9.61L183.75-9.61Q183.63-9.65 183.54-9.63Q183.44-9.61 183.32-9.65L183.32-9.65Q183.01-9.73 182.70-9.82Q182.38-9.92 182.07-9.84L182.07-9.84Q181.80-9.92 181.60-10.04Q181.41-10.16 181.09-10.20L181.09-10.20Q181.05-10.35 180.90-10.37Q180.74-10.39 180.74-10.59L180.74-10.59Q180.51-10.63 180.33-10.72Q180.16-10.82 179.96-10.90L179.96-10.90Q179.77-11.21 179.26-11.37L179.26-11.37Q179.10-11.52 179.00-11.68Q178.91-11.84 178.79-12.03L178.79-12.03Q178.63-12.38 178.44-12.46L178.44-12.46Q178.48-12.77 178.22-13.07Q177.97-13.36 177.93-13.67L177.93-13.67Q177.89-13.83 177.93-13.95Q177.97-14.06 177.97-14.18L177.97-14.18Q177.85-14.61 177.87-14.75Q177.89-14.88 177.77-14.96L177.77-14.96Q177.85-15.12 177.81-15.27Q177.77-15.43 177.85-15.63L177.85-15.63Q177.89-16.05 177.91-16.29Q177.93-16.52 178.13-16.60L178.13-16.60Q178.20-16.72 178.18-16.84Q178.16-16.95 178.20-17.07L178.20-17.07Q178.40-17.38 178.55-17.48Q178.71-17.58 178.71-17.81L178.71-17.81Q179.02-18.13 179.06-18.11Q179.10-18.09 179.18-18.16L179.18-18.16Q179.41-18.44 179.59-18.54Q179.77-18.63 179.77-18.91L179.77-18.91Q179.96-18.83 180.23-19.10Q180.51-19.38 180.70-19.45L180.70-19.45Q181.02-19.65 181.05-19.73L181.05-19.73Q181.37-19.77 181.70-19.84Q182.03-19.92 182.30-20.12L182.30-20.12Q182.42-20 182.60-20.08Q182.77-20.16 182.85-20.31L182.85-20.31Q183.28-20.27 183.55-20.59L183.55-20.59Q183.75-20.55 183.96-20.59Q184.18-20.63 184.38-20.59L184.38-20.59Q185.08-20.43 185.53-20.53Q185.98-20.63 186.29-20.35L186.29-20.35Q186.72-20.43 187.13-20.23Q187.54-20.04 187.97-20.12L187.97-20.12Q188.01-19.88 188.36-19.88L188.36-19.88Q188.44-19.65 188.83-19.57L188.83-19.57Q188.87-19.45 188.95-19.39Q189.02-19.34 189.10-19.22L189.10-19.22Q189.69-19.22 190.04-18.71L190.04-18.71Q190.23-18.79 190.49-19.06Q190.74-19.34 190.82-19.53L190.82-19.53Q190.98-19.53 191.07-19.57Q191.17-19.61 191.29-19.69L191.29-19.69Q191.64-19.73 191.97-19.65Q192.30-19.57 192.62-19.45L192.62-19.45Q192.89-19.14 193.01-18.67Z" fill="#270949"></path></g></svg>